<?xml version="1.0" standalone="no"?>
<!DOCTYPE svg PUBLIC "-//W3C//DTD SVG 1.1//EN" "http://www.w3.org/Graphics/SVG/1.1/DTD/svg11.dtd" >
<svg xmlns="http://www.w3.org/2000/svg">
<defs>
  <font id="uib-iconfont" horiz-adv-x="513">
    <font-face font-family="uib-iconfont"
      units-per-em="513" ascent="513"
      descent="0" />
    <missing-glyph horiz-adv-x="0" />
    <glyph glyph-name="AD_001_checkbox-active"
      unicode="&#xEA01;"
      horiz-adv-x="512" d="M176 400A64 64 0 0 1 112 336V112.66A0.65 0.65 0 0 1 112.66 112.0100000000001H400V400zM246.32 193.82L235.32 182.77A10 10 0 0 0 221.18 182.77L210.18 193.82L151.94 252.06L176.45 276.57L228.29 224.74L335.63 332.16L360.14 307.65z" />
    <glyph glyph-name="AD_003_comment"
      unicode="&#xEA02;"
      horiz-adv-x="512" d="M160 400A64 64 0 0 1 96 336V96L176 176H416V400zM352 240H160V272H352zM352 304H160V336H352z" />
    <glyph glyph-name="AD_004_PARTIAL-0_battery-defective"
      unicode="&#xEA03;"
      horiz-adv-x="512" d="M368 263.6V368H400V320H448V241.82C426.783 256.299 401.687 264.031 376 264C373.3 264 370.6600000000001 263.76 368 263.6zM336 257.54V368H64V240C64 204.654 92.654 176 128 176H254.46C267.193 214.559 297.441 244.807 336 257.54L336 257.54z" />
    <glyph glyph-name="AD_004_PARTIAL-1_COLOR-E6141E_battery-defective"
      unicode="&#xEA04;"
      horiz-adv-x="512" d="M272 136A104 104 0 0 1 480 136A104 104 0 0 1 272 136" />
    <glyph glyph-name="AD_004_PARTIAL-2_COLOR-FFFFFF_battery-defective"
      unicode="&#xEA05;"
      horiz-adv-x="512" d="M432.57 175.6L415.6 192.57L376 152.971L336.4 192.57L319.43 175.6L359.03 136L319.43 96.4L336.4 79.43L376 119.029L415.6 79.43L432.57 96.4L392.9700000000001 136z" />
    <glyph glyph-name="AD_005_metering-speed"
      unicode="&#xEA06;"
      horiz-adv-x="512" d="M291.9 246.55A23.92 23.92 0 0 0 288 218L272.6 202.58A24 24 0 0 0 238.6600000000001 202.58L223.28 218A24 24 0 0 0 223.28 251.94L238.66 267.33A23.94 23.94 0 0 0 267.24 271.24L387 390.92L411.6600000000001 366.25zM416.29 332L363.49 279.2100000000001A113 113 0 0 0 348.54 175.56L398.54 125.56A183.64000000000001 183.64000000000001 0 0 1 416.29 332zM256 355.77A113.52000000000001 113.52000000000001 0 0 0 300.87 346.56L352.57 398.27A183.87 183.87 0 0 1 113.44 125.59L163.44 175.59A113.77999999999999 113.77999999999999 0 0 0 256 355.77z" />
    <glyph glyph-name="AD_006_power-supply"
      unicode="&#xEA07;"
      horiz-adv-x="512" d="M384.05 336L367.46 231.54A64 64 0 0 0 304 176H224A64 64 0 0 0 160.56 231.54L144 336zM269 113.14A120.74000000000001 120.74000000000001 0 0 1 280 160H248C248 157.39 247.32 96 188 96H96V64H188C235.63 64 258.32 90.72 269 113.14zM224 448H192V352H224zM336 448H304V352H336z" />
    <glyph glyph-name="AD_007_PARTIAL-0_COLOR-ffe600_power-supply-restricted"
      unicode="&#xEA08;"
      horiz-adv-x="512" d="M343 268L478.57 46.25C482.299 40.16 478.29 32 471.57 32H200.42C193.71 32 189.7 40.16 193.42 46.25L329 268C331.306 271.866 336.308 273.131 340.174 270.826C341.336 270.1330000000001 342.308 269.1620000000001 343 268z" />
    <glyph glyph-name="AD_007_PARTIAL-1_power-supply-restricted"
      unicode="&#xEA09;"
      horiz-adv-x="512" d="M167.27 64.8C163.529 64.342 159.768 64.075 156 64H64V96H156C173.1 96 185.22 101.18 194 108.51L167.27 64.8zM192.05 176H235.23L301.7100000000001 284.74C311.0240000000001 300.088 329.4240000000001 307.3490000000001 346.7100000000001 302.5L352.0300000000001 336H112L128.59 231.54C132.831 199.736 159.965 175.989 192.05 176zM192 448H160V352H192V448zM304 448H272V352H304V448zM320 192H352V112H320V192zM320 64H352V96H320V64z" />
    <glyph glyph-name="AD_008_keyboard"
      unicode="&#xEA0A;"
      horiz-adv-x="512" d="M64 352V224A64 64 0 0 1 128 160H384A64 64 0 0 1 448 224V352zM336 320H368V288H336zM288 320H320V288H288zM336 272V240H304V272zM240 320H272V288H240zM288 272V240H256V272zM192 320H224V288H192zM240 272V240H208V272zM144 320H176V288H144zM192 272V240H160V272zM96 320H128V288H96zM128 192H96V224H128zM112 240V272H144V240zM368 192H144V224H368zM416 192H384V224H416zM416 240H368V272H416zM416 288H384V320H416z" />
    <glyph glyph-name="AD_009_keyboard-caps-lock"
      unicode="&#xEA0B;"
      horiz-adv-x="512" d="M261 192H144V224H283.21A128.66 128.66 0 0 0 304 241.82V272H336V257.54A127.66999999999999 127.66999999999999 0 0 0 368 263.6V272H416V257.54A127.52 127.52 0 0 0 448 241.82V352H64V224A64 64 0 0 1 128 160H250.33A126.73999999999998 126.73999999999998 0 0 0 261 192zM384 320H416V288H384zM336 320H368V288H336zM288 320H320V288H288zM288 240H256V272H288zM240 320H272V288H240zM240 240H208V272H240zM192 320H224V288H192zM192 240H160V272H192zM144 320H176V288H144zM144 240H112V272H144zM96 320H128V288H96zM128 192H96V224H128zM375.39 176.73L391.47 123.2700000000001H357.47L373.62 176.73zM362.48 32.86C316.12 38.7 278.7000000000001 76.13 272.85 122.48A104.07999999999998 104.07999999999998 0 0 0 389.52 239.15C435.88 233.3 473.3 195.87 479.15 149.52A104.07 104.07 0 0 0 362.48 32.86zM435.48 71.5L388.4700000000001 211H360.4100000000001L313.33 71.5H341.88L350.94 101.5H398L407.06 71.5z" />
    <glyph glyph-name="AD_011_bumptest"
      unicode="&#xEA0C;"
      horiz-adv-x="512" d="M183.84 75.34V168.11H215.73C236.8400000000001 168.11 248.6600000000001 158.8 248.6600000000001 142.67C248.6600000000001 132.28 242.6600000000001 125.97 234.2 123.16C245.2 121.16 251.02 112.44 251.02 102.08C251.02 85.02 239.34 75.34 218.36 75.34zM201.38 128.64H215.64C225.81 128.64 231.3 133.14 231.3 141.05S226.58 153.2700000000001 215.73 153.2700000000001H201.38zM219.05 115.8H201.38V90H218.38C228.38 90 233.82 95.14 233.82 102.26C233.8 110 228.84 115.8 219.05 115.8zM335.75 153.27H307.83V75.11H290.3V153.27H262.3V168.11H335.7200000000001zM304 416H208V448H304zM288 384V400H224V384A63.42000000000001 63.42000000000001 0 0 1 160.74 322.11C160.74 320.68 160.64 319.9100000000001 160.55 320H320V288H160V192H352V320A64 64 0 0 1 288 384z" />
    <glyph glyph-name="AD_012_freshair"
      unicode="&#xEA0D;"
      horiz-adv-x="512" d="M428.27 261.77C401.6 272.93 381.52 205.99 307.48 241.77A55.900000000000006 55.900000000000006 0 0 1 298.55 300.16C327.09 315.26 376.98 315.96 385.02 358.7C393 400.91 326.7 427.54 314.4700000000001 431A194.39 194.39 0 0 1 199 431C186.75 427.5 176.14 420.63 177.07 408.31C179.07 380.99 247.29 393.87 251.44 319.57A56 56 0 0 1 201.57 276.69C173.4 292.58 147.74 334.8 104.83 319.98C62.81 305.4600000000001 72 237 74.94 225A174.62 174.62 0 0 1 95.88 172.59A180.71 180.71 0 0 1 132.72 128.84C141.99 120.3800000000001 153.48 114.98 164.12 121.92C188.12 137.59 140.22 189.63 210.91 230.64A55.900000000000006 55.900000000000006 0 0 1 272.26 210.16C273.8 178.72 249.73 134.79 286.01 107.63C321.21 81.26 376.49 125.33 385.4 134.12A179.66 179.66 0 0 1 420.23 179.12A174.48 174.48 0 0 1 439 232.55C441.44 244.61 440 256.8400000000001 428.27 261.77zM256 239.79A24 24 0 1 0 280 263.79A24 24 0 0 0 256 239.79z" />
    <glyph glyph-name="AD_013_lifesignal"
      unicode="&#xEA0E;"
      horiz-adv-x="512" d="M404.79 367.78C366.94 407.0900000000001 302.5800000000001 405.88 264 367.15L256 359.15L248 367.3300000000001C209.42 405.9100000000001 145.06 407.12 107.21 367.81A97.36999999999999 97.36999999999999 0 0 1 108.53 231.4600000000001L251 88.84H251A7 7 0 0 1 260.85 88.84L355.75 183.74L309.89 266.29L256.04 170.55L225.04 224.89H192V248.89H239L256 219.22L310.15 315.48L373.53 201.39L393.74 221.6L403.57 231.43A97.36999999999999 97.36999999999999 0 0 1 404.79 367.78z" />
    <glyph glyph-name="AD_014_lifesignal-off"
      unicode="&#xEA0F;"
      horiz-adv-x="512" d="M108.47 230.54A97.36999999999999 97.36999999999999 0 0 0 107.15 366.89C145 406.2000000000001 209.36 404.99 247.94 366.4100000000001L255.94 358.23L263.94 366.23A101.19 101.19 0 0 0 354.03 394.0700000000001L208 248H192V232L149.51 189.51zM432 384L409.5 361.5A97.31 97.31 0 0 0 403.5 230.5L393.67 220.67L373.4600000000001 200.47L328.8400000000001 280.7800000000001L311.1900000000001 263.1400000000001L355.8100000000001 182.8100000000001L260.88 88A7 7 0 0 0 251.03 88V88L193.49 145.5L128 80H80L432 432zM305.46 257.48L242.1 194.12L256.1 169.67z" />
    <glyph glyph-name="AD_015_tube-on"
      unicode="&#xEA10;"
      horiz-adv-x="512" d="M353.3 261.87L416 324.57V393.14L450.28 427.43L427.43 450.29L393.14 416H324.57L96 187.43V118.86L61.72 84.57L84.57 61.71L118.86 96H187.43L250.12 158.7A128 128 0 0 0 353.3 261.87zM142.86 188.12L323.86 369.12L346.49 346.49L165.49 165.49zM376 32A104 104 0 1 1 272 136A104 104 0 0 1 376 32zM368 200V160H432V112H368V72L304 136z" />
    <glyph glyph-name="AD_016_tube-off"
      unicode="&#xEA11;"
      horiz-adv-x="512" d="M353.3 261.87L416 324.57V393.14L450.28 427.43L427.43 450.29L393.14 416H324.57L96 187.43V118.86L61.72 84.57L84.57 61.71L118.86 96H187.43L250.12 158.7A128 128 0 0 0 353.3 261.87zM142.86 188.12L323.86 369.12L346.49 346.49L165.49 165.49zM376 240A104 104 0 1 1 480 136A104 104 0 0 1 376 240zM384 72V112H320V160H384V200L448 136z" />
    <glyph glyph-name="AD_017_PARTIAL-0_COLOR-FFE600_suffocation-twa"
      unicode="&#xEA12;"
      horiz-adv-x="512" d="M361.48 263.12L253.27 431.63C248.988 438.299 240.11 440.234 233.441 435.952C231.707 434.838 230.233 433.365 229.12 431.63L71.77 186.6C68.326 181.225 68.092 174.399 71.16 168.8C74.034 163.367 79.684 159.979 85.83 160H250.33C260.847 214.979 305.868 256.748 361.48 263.12z" />
    <glyph glyph-name="AD_017_PARTIAL-1_suffocation-twa"
      unicode="&#xEA13;"
      horiz-adv-x="512" d="M376 240C318.562 240 272 193.437 272 136S318.563 32 376 32S480 78.563 480 136S433.438 240 376 240zM376 64C355.829 64.004 336.592 72.497 323 87.4L376 136V208C415.765 208 448 175.765 448 136S415.765 64 376 64zM224 320C224 337.673 238.327 352 256 352C273.674 352 288 337.673 288 320S273.674 288 256 288C238.327 288 224 302.327 224 320zM298.87 238C295.391 239.295 291.712 239.972 288 240H237.71L206.86 304H186.29L144 241.141V212.571C144 201.21 153.209 192.001 164.57 192.001L164.57 192.001H261C269.842 210.09 282.814 225.848 298.87 238z" />
    <glyph glyph-name="AD_018_PARTIAL-0_COLOR-FFE600_suffocation-stel"
      unicode="&#xEA14;"
      horiz-adv-x="512" d="M361.48 263.12L253.27 431.63C248.988 438.299 240.11 440.234 233.441 435.952C231.707 434.838 230.233 433.365 229.12 431.63L71.77 186.6C68.326 181.225 68.092 174.399 71.16 168.8C74.034 163.367 79.684 159.979 85.83 160H250.33C260.847 214.979 305.868 256.748 361.48 263.12z" />
    <glyph glyph-name="AD_018_PARTIAL-1_suffocation-stel"
      unicode="&#xEA15;"
      horiz-adv-x="512" d="M224 320C224 337.673 238.327 352 256 352C273.674 352 288 337.673 288 320S273.674 288 256 288C238.327 288 224 302.327 224 320zM298.87 238C295.391 239.295 291.712 239.972 288 240H237.71L206.86 304H186.29L144 241.141V212.571C144 201.21 153.209 192.001 164.57 192.001L164.57 192.001H261C269.842 210.09 282.814 225.848 298.87 238zM376 240C318.562 240 272 193.437 272 136S318.563 32 376 32S480 78.563 480 136S433.438 240 376 240zM376 64C336.235 64 304 96.235 304 136S336.235 208 376 208L376 208V136H448C448 96.235 415.765 64 376 64z" />
    <glyph glyph-name="AD_019_PARTIAL-0_COLOR-FFE600_toxic-twa"
      unicode="&#xEA16;"
      horiz-adv-x="512" d="M361.48 263.12L253.27 431.63C248.988 438.299 240.11 440.234 233.441 435.952C231.707 434.838 230.233 433.365 229.12 431.63L71.77 186.6C68.326 181.225 68.092 174.399 71.16 168.8C74.034 163.367 79.684 159.979 85.83 160H250.33C260.847 214.979 305.868 256.748 361.48 263.12z" />
    <glyph glyph-name="AD_019_PARTIAL-1_toxic-twa"
      unicode="&#xEA17;"
      horiz-adv-x="512" d="M376 240C318.562 240 272 193.437 272 136S318.563 32 376 32S480 78.563 480 136S433.438 240 376 240zM376 64C355.829 64.004 336.592 72.497 323 87.4L376 136V208C415.765 208 448 175.765 448 136S415.765 64 376 64zM262.12 194.25L240 202.84L170.91 176L163 196.311L209.89 214.531L163 232.75L170.89 253.061L240 226.2200000000001L309.0900000000001 253.0610000000001L311.6300000000001 246.5100000000001C298.4830000000001 238.8800000000001 286.7950000000001 228.9770000000001 277.1090000000001 217.2600000000001L270.1090000000001 214.5310000000001L274 213C269.502 207.107 265.527 200.834 262.12 194.25zM194.39 327.25C199.956 352.4170000000001 224.87 368.306 250.037 362.74C275.204 357.174 291.093 332.26 285.527 307.093C283.257 296.834 277.593 287.64 269.45 281.0010000000001C266.522 278.5460000000001 264.467 275.2100000000001 263.59 271.4910000000001L262.2 265.9010000000001C260.121 257.591 252.656 251.7620000000001 244.09 251.761H235.91C227.344 251.762 219.878 257.592 217.8 265.901L216.41 271.481C215.557 275.1710000000001 213.533 278.486 210.64 280.9310000000001C196.874 292.019 190.578 309.9500000000001 194.39 327.211V327.25zM248 305.32C253.799 298.653 263.905 297.948 270.572 303.747C277.24 309.546 277.944 319.652 272.145 326.32C266.345 332.987 256.24 333.692 249.572 327.8930000000001C249.012 327.406 248.487 326.88 247.999 326.32V305.32zM204 315.8C203.968 306.997 211.08 299.8350000000001 219.883 299.803C224.533 299.786 228.959 301.802 232 305.32V326.32C226.244 332.981 216.178 333.714 209.517 327.957C205.996 324.914 203.98 320.484 204 315.83V315.8z" />
    <glyph glyph-name="AD_020_PARTIAL-0_COLOR-FFE600_toxic-stel"
      unicode="&#xEA18;"
      horiz-adv-x="512" d="M361.48 263.12L253.27 431.63C248.988 438.299 240.11 440.234 233.441 435.952C231.707 434.838 230.233 433.365 229.12 431.63L71.77 186.6C68.326 181.225 68.092 174.399 71.16 168.8C74.034 163.367 79.684 159.979 85.83 160H250.33C260.847 214.979 305.868 256.748 361.48 263.12z" />
    <glyph glyph-name="AD_020_PARTIAL-1_toxic-stel"
      unicode="&#xEA19;"
      horiz-adv-x="512" d="M376 240C318.562 240 272 193.437 272 136S318.563 32 376 32S480 78.563 480 136S433.438 240 376 240zM376 64C336.235 64 304 96.235 304 136S336.235 208 376 208L376 208V136H448C448 96.235 415.765 64 376 64zM262.12 194.25L240 202.84L170.91 176L163 196.311L209.89 214.531L163 232.75L170.89 253.061L240 226.2200000000001L309.0900000000001 253.0610000000001L311.6300000000001 246.5100000000001C298.4830000000001 238.8800000000001 286.7950000000001 228.9770000000001 277.1090000000001 217.2600000000001L270.1090000000001 214.5310000000001L274 213C269.502 207.107 265.527 200.834 262.12 194.25zM194.39 327.25C199.956 352.4170000000001 224.87 368.306 250.037 362.74C275.204 357.174 291.093 332.26 285.527 307.093C283.257 296.834 277.593 287.64 269.45 281.0010000000001C266.522 278.5460000000001 264.467 275.2100000000001 263.59 271.4910000000001L262.2 265.9010000000001C260.121 257.591 252.656 251.7620000000001 244.09 251.761H235.91C227.344 251.762 219.878 257.592 217.8 265.901L216.41 271.481C215.557 275.1710000000001 213.533 278.486 210.64 280.9310000000001C196.874 292.019 190.578 309.9500000000001 194.39 327.211V327.25zM248 305.32C253.799 298.653 263.905 297.948 270.572 303.747C277.24 309.546 277.944 319.652 272.145 326.32C266.345 332.987 256.24 333.692 249.572 327.8930000000001C249.012 327.406 248.487 326.88 247.999 326.32V305.32zM204 315.8C203.968 306.997 211.08 299.8350000000001 219.883 299.803C224.533 299.786 228.959 301.802 232 305.32V326.32C226.244 332.981 216.178 333.714 209.517 327.957C205.996 324.914 203.98 320.484 204 315.83V315.8z" />
    <glyph glyph-name="AD_021_PARTIAL-0_COLOR-FFE600_flammable-twa"
      unicode="&#xEA1A;"
      horiz-adv-x="512" d="M361.48 263.12L253.27 431.63C248.988 438.299 240.11 440.234 233.441 435.952C231.707 434.838 230.233 433.365 229.12 431.63L71.77 186.6C68.326 181.225 68.092 174.399 71.16 168.8C74.034 163.367 79.684 159.979 85.83 160H250.33C260.847 214.979 305.868 256.748 361.48 263.12z" />
    <glyph glyph-name="AD_021_PARTIAL-1_flammable-twa"
      unicode="&#xEA1B;"
      horiz-adv-x="512" d="M251.48 205.79C255.03 202.287 259.008 199.2460000000001 263.32 196.74C273.527 215.569 288.277 231.55 306.23 243.23C305.61 264.14 293.23 280.689 293.23 280.689C293.736 276.2320000000001 293.0440000000001 271.721 291.23 267.6190000000001C287.7000000000001 259.539 273.07 254.348 268.62 255.1190000000001C282.04 274.6190000000001 282.891 307.399 277.529 326.2090000000001C272.17 345.02 239.77 368 239.77 368S243.69 356.79 239.77 345.15S225.77 320.7000000000001 212.77 308.25S176 277.92 176 247.641C176 210.84 214.37 192 214.37 192S205.7 202.45 205.7 223.15C205.7 248.15 237.4 262.99 239.7 263.43C237.19 257.43 229.41 228.25 251.48 205.79zM376 240C318.562 240 272 193.437 272 136S318.563 32 376 32S480 78.563 480 136S433.438 240 376 240zM376 64C355.829 64.004 336.592 72.497 323 87.4L376 136V208C415.765 208 448 175.765 448 136S415.765 64 376 64z" />
    <glyph glyph-name="AD_022_PARTIAL-0_COLOR-FFE600_flammable-stel"
      unicode="&#xEA1C;"
      horiz-adv-x="512" d="M361.48 263.12L253.27 431.63C248.988 438.299 240.11 440.234 233.441 435.952C231.707 434.838 230.233 433.365 229.12 431.63L71.77 186.6C68.326 181.225 68.092 174.399 71.16 168.8C74.034 163.367 79.684 159.979 85.83 160H250.33C260.847 214.979 305.868 256.748 361.48 263.12z" />
    <glyph glyph-name="AD_022_PARTIAL-1_flammable-stel"
      unicode="&#xEA1D;"
      horiz-adv-x="512" d="M376 240C318.562 240 272 193.437 272 136S318.563 32 376 32S480 78.563 480 136S433.438 240 376 240zM376 64C336.235 64 304 96.235 304 136S336.235 208 376 208L376 208V136H448C448 96.235 415.765 64 376 64zM251.48 205.79C255.03 202.287 259.008 199.2460000000001 263.32 196.74C273.527 215.569 288.277 231.55 306.23 243.23C305.61 264.14 293.23 280.689 293.23 280.689C293.736 276.2320000000001 293.0440000000001 271.721 291.23 267.6190000000001C287.7000000000001 259.539 273.07 254.348 268.62 255.1190000000001C282.04 274.6190000000001 282.891 307.399 277.529 326.2090000000001C272.17 345.02 239.77 368 239.77 368S243.69 356.79 239.77 345.15S225.77 320.7000000000001 212.77 308.25S176 277.92 176 247.641C176 210.84 214.37 192 214.37 192S205.7 202.45 205.7 223.15C205.7 248.15 237.4 262.99 239.7 263.43C237.19 257.43 229.41 228.25 251.48 205.79z" />
    <glyph glyph-name="AD_023_PARTIAL-0_COLOR-FFE600_explosiv-twa"
      unicode="&#xEA1E;"
      horiz-adv-x="512" d="M361.48 263.12L253.27 431.63C248.988 438.299 240.11 440.234 233.441 435.952C231.707 434.838 230.233 433.365 229.12 431.63L71.77 186.6C68.326 181.225 68.092 174.399 71.16 168.8C74.034 163.367 79.684 159.979 85.83 160H250.33C260.847 214.979 305.868 256.748 361.48 263.12z" />
    <glyph glyph-name="AD_023_PARTIAL-1_explosiv-twa"
      unicode="&#xEA1F;"
      horiz-adv-x="512" d="M376 240C318.562 240 272 193.437 272 136S318.563 32 376 32S480 78.563 480 136S433.438 240 376 240zM376 64C355.829 64.004 336.592 72.497 323 87.4L376 136V208C415.765 208 448 175.765 448 136S415.765 64 376 64zM327.81 254.17L336.75 272L293.08 238.07L304.75 320L272 258.29L272.75 304L253.39 242.15L224.75 368L229 252.27L176.75 288L208.54 231.83L144.75 256L202.25 209.4L128.75 224L185.47 192H261.349C275.122 220.178 298.777 242.306 327.81 254.17z" />
    <glyph glyph-name="AD_024_PARTIAL-0_COLOR-FFE600_explosiv-stel"
      unicode="&#xEA20;"
      horiz-adv-x="512" d="M361.48 263.12L253.27 431.63C248.988 438.299 240.11 440.234 233.441 435.952C231.707 434.838 230.233 433.365 229.12 431.63L71.77 186.6C68.326 181.225 68.092 174.399 71.16 168.8C74.034 163.367 79.684 159.979 85.83 160H250.33C260.847 214.979 305.868 256.748 361.48 263.12z" />
    <glyph glyph-name="AD_024_PARTIAL-1_explosiv-stel"
      unicode="&#xEA21;"
      horiz-adv-x="512" d="M327.81 254.17L336.75 272L293.08 238.07L304.75 320L272 258.29L272.75 304L253.39 242.15L224.75 368L229 252.27L176.75 288L208.54 231.83L144.75 256L202.25 209.4L128.75 224L185.47 192H261.349C275.122 220.178 298.777 242.306 327.81 254.17zM376 240C318.562 240 272 193.437 272 136S318.563 32 376 32S480 78.563 480 136S433.438 240 376 240zM376 64C336.235 64 304 96.235 304 136S336.235 208 376 208L376 208V136H448C448 96.235 415.765 64 376 64z" />
    <glyph glyph-name="AD_025_twa-alarm"
      unicode="&#xEA22;"
      horiz-adv-x="512" d="M256 384A128 128 0 1 0 128 256A128.14 128.14 0 0 0 256 384M256 416A160 160 0 1 1 416 256A160 160 0 0 1 256 416zM171.79 182.32A112 112 0 1 1 256 368V256z" />
    <glyph glyph-name="AD_026_stel-alarm"
      unicode="&#xEA23;"
      horiz-adv-x="512" d="M256 384A128 128 0 1 0 128 256A128.14 128.14 0 0 0 256 384M256 416A160 160 0 1 1 416 256A160 160 0 0 1 256 416zM256 368A112 112 0 1 1 368 256H256z" />
    <glyph glyph-name="AD_027_sensor-missing"
      unicode="&#xEA24;"
      horiz-adv-x="512" d="M176 336H144V384H176V400C176 417.67 187.94 432 202.67 432H336V384H344L296 336zM176 216L264 304H176zM432 432L80 80H128L176 128V112A32 32 0 0 1 208 80H304A32 32 0 0 1 336 112V288L432 384z" />
    <glyph glyph-name="AD_028_pid"
      unicode="&#xEA25;"
      horiz-adv-x="512" d="M427.43 450.29L393.14 416H324.57L96 187.43V118.86L61.71 84.57L84.57 61.71L118.86 96H187.43L416 324.57V393.14L450.29 427.43zM165.49 165.49L142.86 188.12L323.86 369.12L346.49 346.49z" />
    <glyph glyph-name="AD_029_remote"
      unicode="&#xEA26;"
      horiz-adv-x="512" d="M233.82 342.67L205.69 371.46A107.08000000000001 107.08000000000001 0 0 0 306.31 371.46L278.14 342.68A30.85 30.85 0 0 0 233.82 342.67zM188.48 389A129.51 129.51 0 0 0 323.48 388.95L352 418.12A169.32 169.32 0 0 1 160 418.19zM320 304V128A64 64 0 0 0 192 128V304zM288 240A32 32 0 1 1 256 208A32 32 0 0 1 288 240z" />
    <glyph glyph-name="AD_030_sensor-catex"
      unicode="&#xEA27;"
      horiz-adv-x="512" d="M380.45 380.45A176 176 0 1 1 432 256A174.85 174.85 0 0 1 380.45 380.45zM329.54 306.91L357 334.42A126.75 126.75 0 0 0 376.89 297.73L357.78 278.63zM335.2 256L306.91 227.7200000000001L278.63 256L306.91 284.28zM306.91 329.54L278.63 357.8200000000001L297.73 376.92A126.43 126.43 0 0 0 334.4100000000001 357zM284.29 306.9100000000001L256 278.63L227.71 306.91L256 335.2zM233.38 256L205.09 227.7200000000001L176.8 256L205.09 284.28zM205.09 329.54L177.59 357A126.43 126.43 0 0 0 214.27 376.88L233.37 357.78zM182.46 306.9100000000001L154.18 278.63L135.08 297.73A126.43 126.43 0 0 0 155 334.41zM154.18 233.37L182.46 205.09L155 177.58A126.88 126.88 0 0 0 135.11 214.27zM205.09 182.46L233.37 154.1800000000001L214.27 135.0800000000001A126.43 126.43 0 0 0 177.59 155zM227.71 205.09L256 233.37L284.29 205.09L256 176.8zM306.9100000000001 182.46L334.4100000000001 154.96A126.43 126.43 0 0 0 297.73 135.0800000000001L278.63 154.1800000000001zM329.54 205.09L357.8200000000001 233.37L376.9200000000001 214.27A126.43 126.43 0 0 0 357 177.59z" />
    <glyph glyph-name="AD_031_sensor-ec"
      unicode="&#xEA28;"
      horiz-adv-x="512" d="M189.12 268H244V213.13A68.10000000000001 68.10000000000001 0 0 0 189.12 268zM268 213.13A68.10000000000001 68.10000000000001 0 0 1 322.88 268H268zM189.12 292H244V346.87A68.10000000000001 68.10000000000001 0 0 1 189.12 292zM374.8 161.21A168.82 168.82 0 0 0 352 142.3V96A32 32 0 0 0 320 64H192A32 32 0 0 0 160 96V142.3A167.92 167.92 0 1 0 374.8 161.21zM224 128H192V96H224zM272 128H240V96H272zM320 128H288V96H320zM348 280A92 92 0 1 1 256 188A92.10000000000001 92.10000000000001 0 0 1 348 280zM268 346.87V292H322.88A68.10000000000001 68.10000000000001 0 0 1 268 346.87z" />
    <glyph glyph-name="AD_032_sensor-ir"
      unicode="&#xEA29;"
      horiz-adv-x="512" d="M380.45 380.45A176 176 0 1 1 432 256A174.85 174.85 0 0 1 380.45 380.45zM160 192H208C208.59 185.26 198.63 177.32 192 176H160zM215.88 208.62A13.24 13.24 0 0 0 198.75 204.2L151.56 228.67A21.33 21.33 0 0 0 143.63 259.41L151.75 271.62L219.95 214.72zM220 235.74L184.87 308.69A21.319999999999997 21.319999999999997 0 0 0 196.93 338L222.1 347L248.91 233.5L236.33 229A13.24 13.24 0 0 0 220 235.74zM256 160A32 32 0 1 0 288 192A32 32 0 0 0 256 160zM275.67 229L263.0900000000001 233.46L289.9 347L315.07 338A21.319999999999997 21.319999999999997 0 0 0 327.16 308.65L292 235.74A13.24 13.24 0 0 0 275.67 229zM320 176C313.37 177.32 303.4100000000001 185.26 304 192H352V176zM357.79 227.3L313.25 204.2A13.24 13.24 0 0 0 296.12 208.62L292.05 214.72L360.25 271.62L366.7200000000001 261.9000000000001A24 24 0 0 0 357.79 227.3z" />
    <glyph glyph-name="AD_033_sensor-pid"
      unicode="&#xEA2A;"
      horiz-adv-x="512" d="M256 80A176 176 0 0 0 131.55 380.45H131.55A176 176 0 1 0 256 80zM184 264A48 48 0 1 1 232 216A48 48 0 0 1 184 264z" />
    <glyph glyph-name="AD_034_pdf"
      unicode="&#xEA2B;"
      horiz-adv-x="512" d="M270.19 64H192A64 64 0 0 0 128 128V448H288L384 352V263.6C381.34 263.76 378.7 264 376 264A127.26999999999998 127.26999999999998 0 0 1 312 246.73A160.14 160.14 0 0 1 293 245.94C277.82 255.94 266 270.39 260 287.8C268.49 327.43 260.67 341.9600000000001 258.3 345.54A13.76 13.76 0 0 1 250.37 351.13A15.53 15.53 0 0 1 229.26 337.0600000000001V332.24A165.35 165.35 0 0 1 236.26 285.9400000000001V284.0900000000001C225.82 261.0900000000001 218.85 246.0000000000001 207 225.6200000000001C180.21 214.8600000000001 162.68 195.6700000000001 160.7 183.34C159.86 178.1400000000001 159.93 171.8100000000001 165.36 166.9500000000001C173.57 160.46 182.73 162.2000000000001 189.68 168.34A125.91999999999999 125.91999999999999 0 0 1 221.82 208.9L224.04 212.23A405.75999999999993 405.75999999999993 0 0 0 283.3 226.68A8.78 8.78 0 0 0 285.5900000000001 226.68A127.93 127.93 0 0 1 270.19 64zM480 136A104 104 0 1 0 376 240A104 104 0 0 0 480 136zM448 136L384 200V160H320V112H384V72z" />
    <glyph glyph-name="AD_035_photo"
      unicode="&#xEA2C;"
      horiz-adv-x="512" d="M248 136A128.23 128.23 0 0 0 250.33 160H128L192 256L256 224L320 320L338.48 258.39A128.06 128.06 0 0 0 448 241.82V384H128A64 64 0 0 1 64 320V192A64 64 0 0 1 128 128H248.41C248.24 130.66 248 133.3 248 136zM160 352A32 32 0 1 0 128 320A32 32 0 0 0 160 352zM376 240A104 104 0 1 1 480 136A104 104 0 0 1 376 240zM384 72V112H320V160H384V200L448 136z" />
    <glyph glyph-name="AD_036_one"
      unicode="&#xEA2D;"
      horiz-adv-x="512" d="M276.59 173.09H248.34V306.3300000000001H247.34L222.72 292L210.72 313L250 336.0900000000001H276.57z" />
    <glyph glyph-name="AD_037_onehundred"
      unicode="&#xEA2E;"
      horiz-adv-x="512" d="M143.44 173.09H115.19V306.3300000000001H114.19L89.56 292L77.56 313L116.87 336.07H143.45zM297.94 242.34C297.94 194.27 273.94 170.86 241.36 170.86C208.56 170.86 184.53 194.27 184.53 242.34V268.92C184.53 315.23 208.6400000000001 338.33 241.2800000000001 338.33S297.9400000000001 315.23 297.9400000000001 268.92zM267.62 273.22C267.62 299.95 256.39 312.78 241.28 312.78S214.77 299.95 214.77 273.22V237.95C214.77 209.7 226.23 196.66 241.36 196.66C256.31 196.66 267.62 209.66 267.62 237.95zM431.0900000000001 242.34C431.0900000000001 194.27 407.1400000000001 170.86 374.5200000000001 170.86C341.7200000000001 170.86 317.6900000000001 194.27 317.6900000000001 242.34V268.92C317.6900000000001 315.23 341.8000000000001 338.33 374.4400000000001 338.33S431.0900000000001 315.23 431.0900000000001 268.92zM400.7800000000001 273.22C400.7800000000001 299.95 389.55 312.78 374.4400000000001 312.78S347.9200000000001 299.95 347.9200000000001 273.22V237.95C347.9200000000001 209.7 359.3900000000001 196.66 374.5200000000001 196.66C389.5200000000001 196.66 400.7800000000001 209.66 400.7800000000001 237.95z" />
    <glyph glyph-name="AD_038_PARTIAL-0_fta"
      unicode="&#xEA2F;"
      horiz-adv-x="512" d="M224 128H144C108.654 128 80 156.654 80 192V416H112V368H176V416H336V368H400V416H432V208H400V336H112V192C112 174.326 126.327 160 144 160H224V128zM224 208H256V240H208V192H224V208zM240 304H192V256H240V304zM160 448H128V384H160V448zM384 448H352V384H384V448zM320 304V256H368V304H320zM192 192V240H144V192H192zM320 240H272V208H320V240zM304 304H256V256H304V304z" />
    <glyph glyph-name="AD_038_PARTIAL-1_COLOR-FFE600_fta"
      unicode="&#xEA30;"
      horiz-adv-x="512" d="M448 64H272C254.327 64 240 78.327 240 96V192H448L384 128L448 64z" />
    <glyph glyph-name="AD_039_no-attachment"
      unicode="&#xEA31;"
      horiz-adv-x="512" d="M200 240L160 200V384A64 64 0 0 0 224 448H352V392L312 352V408H224A24 24 0 0 1 200 384zM224 264L264 304V384H224zM432 384L352 304V128A64 64 0 0 0 224 128V176L200 152V128H176L128 80H80L432 432zM312 264L264 216V128A24 24 0 0 1 312 128z" />
    <glyph glyph-name="AD_040_no-comment"
      unicode="&#xEA32;"
      horiz-adv-x="512" d="M200 240L96 136V336A64 64 0 0 0 160 400H360L296 336H160V304H264L232 272H160V240zM432 432V384L416 368V176H224L128 80H80zM352 272H320L288 240H352z" />
    <glyph glyph-name="AD_041_PARTIAL-0_flag-report"
      unicode="&#xEA33;"
      horiz-adv-x="512" d="M224 96V208H384V352L288 448H128V128C128 92.654 156.654 64 192 64H224V96zM184 216H160V240H184V216zM184 264H160V288H184V264zM184 312H160V336H184V312zM200 336H328V312H200V336zM200 288H328V264H200V288zM200 240H328V216H200V240z" />
    <glyph glyph-name="AD_041_PARTIAL-1_COLOR-E6141E_flag-report"
      unicode="&#xEA34;"
      horiz-adv-x="512" d="M448 64H272C254.327 64 240 78.327 240 96V192H448L384 128L448 64z" />
    <glyph glyph-name="AD_043_ten-from-ten"
      unicode="&#xEA35;"
      horiz-adv-x="512" d="M240.91 263.45H210.66V406.0900000000001H209.66L183.24 390.75L170.36 413.24L212.45 437.95H240.9100000000001zM406.39 337.58C406.39 286.12 380.75 261.07 345.81 261.07C310.7 261.07 284.98 286.12 284.98 337.58V366C284.98 415.5900000000001 310.8 440.3 345.73 440.3S406.39 415.5900000000001 406.39 366zM373.94 370.64C373.94 399.27 361.94 412.98 345.73 412.98S317.36 399.27 317.36 370.64V332.9C317.36 302.65 329.62 288.67 345.81 288.67C361.81 288.67 373.94 302.67 373.94 332.9zM416 240H128V208H416zM286.7 65.63H266.52V160.86H265.83L248.2 150.62L239.61 165.62L267.7 182.12H286.7zM397.09 115.12C397.09 80.77 379.97 64.04 356.64 64.04S316 80.77 316 115.12V134.12C316 167.23 333.24 183.73 356.56 183.73S397.06 167.23 397.06 134.12zM375.42 137.2C375.42 156.3 367.42 165.47 356.5900000000001 165.47S337.6600000000001 156.3 337.6600000000001 137.2V112C337.6600000000001 91.81 345.8400000000001 82.48 356.6600000000001 82.48S375.4400000000001 91.81 375.4400000000001 112z" />
    <glyph glyph-name="AD_044_nine-from-ten"
      unicode="&#xEA36;"
      horiz-adv-x="512" d="M416 208H128V240H416zM286.7 182.13H267.7L239.61 165.63L248.2 150.63L265.83 160.87H266.52V65.64H286.7zM397.09 134.13C397.09 167.24 379.91 183.74 356.59 183.74S316 167.23 316 134.12V115.12C316 80.77 333.19 64.04 356.61 64.04S397.06 80.77 397.06 115.12zM375.42 112C375.42 91.81 367.3400000000001 82.48 356.64 82.48S337.64 91.81 337.64 112V137.2C337.64 156.3 345.76 165.47 356.57 165.47S375.4 156.3 375.4 137.2zM264.83 366C264.83 415.5900000000001 239.09 440.3 204.17 440.3S143.42 415.63 143.42 366V337.54C143.42 286.08 169.14 261.03 204.25 261.03C239.19 261.03 264.83 286.08 264.83 337.54zM232.38 332.9C232.38 302.65 220.27 288.67 204.25 288.67C188.06 288.67 175.8 302.67 175.8 332.9V370.64C175.8 399.27 188 413 204.17 413S232.38 399.29 232.38 370.66zM320.08 308.78H289.1600000000001C295.1600000000001 279.98 311.9100000000001 260.55 344.11 260.55C388.25 262.55 405.2000000000001 298.98 405.2000000000001 354.2000000000001V360.67C405.2000000000001 412.13 382.2000000000001 440.25 344.9700000000001 440.25C309.9700000000001 440.25 287.2800000000001 414.86 287.2800000000001 381.89C287.2800000000001 350.62 303.8100000000001 324.63 336.5300000000001 324.63C351.36 324.63 364.2200000000001 330.3400000000001 373.17 339.7100000000001C371.55 304.35 359.7 287.7100000000001 344.4500000000001 287.48C329 287.48 323.92 296.43 320.08 308.78zM318.89 382.31C318.89 400.8 329.8 413.92 345.05 413.92C361.1600000000001 413.92 372.73 402.77 372.73 378.99V378.14C372.73 363.4 362.5200000000001 350.88 345.4700000000001 350.88C328 350.88 318.89 364.0800000000001 318.89 382.31z" />
    <glyph glyph-name="AD_045_eight-from-ten"
      unicode="&#xEA37;"
      horiz-adv-x="512" d="M416 208H128V240H416zM286.7 182.13H267.7L239.61 165.63L248.2 150.63L265.83 160.87H266.52V65.64H286.7zM397.09 134.13C397.09 167.24 379.91 183.74 356.59 183.74S316 167.23 316 134.12V115.12C316 80.77 333.19 64.04 356.61 64.04S397.06 80.77 397.06 115.12zM375.42 112C375.42 91.81 367.3400000000001 82.48 356.64 82.48S337.64 91.81 337.64 112V137.2C337.64 156.3 345.76 165.47 356.57 165.47S375.4 156.3 375.4 137.2zM265.94 366C265.94 415.5900000000001 240.22 440.3 205.28 440.3S144.53 415.63 144.53 366V337.54C144.53 286.08 170.25 261.03 205.36 261.03C240.3 261.03 265.94 286.08 265.94 337.54zM233.48 332.9C233.48 302.65 221.38 288.67 205.36 288.67C189.17 288.67 176.91 302.67 176.91 332.9V370.64C176.91 399.27 189.09 412.98 205.28 412.98S233.48 399.27 233.48 370.64zM404.48 312.02C404.48 331.11 393.99 346.19 377.48 354.37C391.87 362.2000000000001 400.82 375.92 400.82 392.54C400.82 423.81 378.32 440.3400000000001 346.88 440.3400000000001C315.88 440.3400000000001 293.02 423.81 293.02 392.54C293.02 375.92 302.02 362.29 316.38 354.45C299.76 346.27 289.2 331.11 289.2 312.02C289.2 279.3 314.34 261.02 347.13 261.02S404.44 279.3 404.44 312zM372.62 314.02C372.62 298.51 362.13 287.69 347.13 287.69S320.9 298.51 320.9 314.1C320.9 330.04 332.13 341.1 346.71 341.1C361.4100000000001 341.0800000000001 372.58 330 372.58 314zM369.29 390.9600000000001C369.29 376.9 360.29 367.27 347.13 367.27S324.56 376.9 324.56 391.13S333.93 413.7100000000001 346.71 413.7100000000001C360.05 413.67 369.25 404.8 369.25 390.92z" />
    <glyph glyph-name="AD_046_seven-from-ten"
      unicode="&#xEA38;"
      horiz-adv-x="512" d="M416 208H128V240H416zM286.7 182.13H267.7L239.61 165.63L248.2 150.63L265.83 160.87H266.52V65.64H286.7zM397.09 134.13C397.09 167.24 379.91 183.74 356.59 183.74S316 167.23 316 134.12V115.12C316 80.77 333.19 64.04 356.61 64.04S397.06 80.77 397.06 115.12zM375.42 112C375.42 91.81 367.3400000000001 82.48 356.64 82.48S337.64 91.81 337.64 112V137.2C337.64 156.3 345.76 165.47 356.57 165.47S375.4 156.3 375.4 137.2zM273.09 366C273.09 415.5900000000001 247.38 440.3 212.44 440.3S151.69 415.63 151.69 366V337.54C151.69 286.08 177.41 261.03 212.52 261.03C247.45 261.03 273.09 286.08 273.09 337.54zM240.64 332.9C240.64 302.65 228.53 288.67 212.52 288.67C196.33 288.67 184.06 302.67 184.06 332.9V370.64C184.06 399.27 196.25 412.98 212.44 412.98S240.64 399.27 240.64 370.64zM406.06 437.9H289.92V409.7H371.2L307.14 263.4H341.22L406.06 416.57z" />
    <glyph glyph-name="AD_047_six-from-ten"
      unicode="&#xEA39;"
      horiz-adv-x="512" d="M416 208H128V240H416zM286.7 182.13H267.7L239.61 165.63L248.2 150.63L265.83 160.87H266.52V65.64H286.7zM397.09 134.13C397.09 167.24 379.91 183.74 356.59 183.74S316 167.23 316 134.12V115.12C316 80.77 333.19 64.04 356.61 64.04S397.06 80.77 397.06 115.12zM375.42 112C375.42 91.81 367.3400000000001 82.48 356.64 82.48S337.64 91.81 337.64 112V137.2C337.64 156.3 345.76 165.47 356.57 165.47S375.4 156.3 375.4 137.2zM265.25 366C265.25 415.5900000000001 239.53 440.3 204.59 440.3S143.84 415.63 143.84 366V337.54C143.84 286.08 169.56 261.03 204.67 261.03C239.61 261.03 265.25 286.08 265.25 337.54zM232.8 332.9C232.8 302.65 220.69 288.67 204.67 288.67C188.48 288.67 176.22 302.67 176.22 332.9V370.64C176.22 399.27 188.41 412.98 204.59 412.98S232.8000000000001 399.27 232.8000000000001 370.64zM373 392.11H403.67C397.7800000000001 420.91 381 440.3400000000001 348.67 440.3400000000001C304.11 440.3400000000001 287.1600000000001 402.5900000000001 287.67 347.12V340.91C287.67 289.27 310.5900000000001 261.07 347.8300000000001 261.07C382.9400000000001 261.07 405.0800000000001 286.55 405.0800000000001 319.43C405.0800000000001 350.7000000000001 388.9900000000001 376.77 356.2700000000001 376.77C341.4400000000001 376.77 328.49 370.98 319.6300000000001 361.61C321.0800000000001 397.14 333.0900000000001 413.4100000000001 348.6300000000001 413.4100000000001C363.8 413.41 368.9100000000001 404.73 373 392.11zM320.08 322.33V323.18C320.08 337.92 330.31 350.45 347.34 350.45C364.91 350.45 373.94 337.33 373.94 319.09C373.94 300.6 363.03 287.48 347.77 287.48C331.67 287.48 320.08 298.64 320.08 322.3300000000001z" />
    <glyph glyph-name="AD_048_five-from-ten"
      unicode="&#xEA3A;"
      horiz-adv-x="512" d="M416 208H128V240H416zM286.7 182.13H267.7L239.61 165.63L248.2 150.63L265.83 160.87H266.52V65.64H286.7zM397.09 134.13C397.09 167.24 379.91 183.74 356.59 183.74S316 167.23 316 134.12V115.12C316 80.77 333.19 64.04 356.61 64.04S397.06 80.77 397.06 115.12zM375.42 112C375.42 91.81 367.3400000000001 82.48 356.64 82.48S337.64 91.81 337.64 112V137.2C337.64 156.3 345.76 165.47 356.57 165.47S375.4 156.3 375.4 137.2zM264.58 366C264.58 415.5900000000001 238.84 440.3 203.92 440.3S143.17 415.63 143.17 366V337.54C143.17 286.08 168.89 261.03 204 261.03C238.94 261.03 264.58 286.08 264.58 337.54zM232.12 332.9C232.12 302.65 220.02 288.67 204 288.67C187.81 288.67 175.55 302.67 175.55 332.9V370.64C175.55 399.27 187.73 412.98 203.92 412.98S232.12 399.27 232.12 370.64zM317.62 342.44C322.62 347.3 329.9700000000001 351.98 343.0900000000001 351.98C360.98 351.98 372.48 339.98 372.48 319.86C372.48 301.28 362.86 287.31 345.2200000000001 287.31C331.17 287.31 321.7000000000001 295.66 319.75 310.15H288.05C289.05 278.62 315.8300000000001 261.07 344.9700000000001 261.07C384.25 261.07 403.8400000000001 287.4 403.8400000000001 318.16C403.8400000000001 354.02 381.61 376.35 351.0200000000001 376.35C337.1200000000001 376.35 327.8400000000001 371.16 323.67 366.35H322.73L327.92 409.63H397.55V437.95H301.34L291.12 348.95z" />
    <glyph glyph-name="AD_049_four-from-ten"
      unicode="&#xEA3B;"
      horiz-adv-x="512" d="M416 208H128V240H416zM286.7 182.13H267.7L239.61 165.63L248.2 150.63L265.83 160.87H266.52V65.64H286.7zM397.09 134.13C397.09 167.24 379.91 183.74 356.59 183.74S316 167.23 316 134.12V115.12C316 80.77 333.19 64.04 356.61 64.04S397.06 80.77 397.06 115.12zM375.42 112C375.42 91.81 367.3400000000001 82.48 356.64 82.48S337.64 91.81 337.64 112V137.2C337.64 156.3 345.76 165.47 356.57 165.47S375.4 156.3 375.4 137.2zM257.5 366C257.5 415.5900000000001 231.78 440.31 196.84 440.31S136.09 415.62 136.09 366V337.55C136.09 286.0900000000001 161.81 261.0300000000001 196.92 261.0300000000001C231.86 261.0300000000001 257.5 286.0900000000001 257.5 337.55zM225.05 332.88C225.05 302.63 212.94 288.64 196.92 288.64C180.73 288.64 168.47 302.64 168.47 332.88V370.64C168.47 399.28 180.66 412.98 196.84 412.98S225.0500000000001 399.28 225.0500000000001 370.64zM406.8300000000001 324.88H381.61V437.95H348.38L275.61 318.75V297H352.2V263.42H381.61V297H406.8300000000001zM310.2800000000001 324.88L348.3800000000001 389.56L352.2000000000001 397.06V324.88z" />
    <glyph glyph-name="AD_050_three-from-ten"
      unicode="&#xEA3C;"
      horiz-adv-x="512" d="M416 208H128V240H416zM286.7 182.13H267.7L239.61 165.63L248.2 150.63L265.83 160.87H266.52V65.64H286.7zM397.09 134.13C397.09 167.24 379.91 183.74 356.59 183.74S316 167.23 316 134.12V115.12C316 80.77 333.19 64.04 356.61 64.04S397.06 80.77 397.06 115.12zM375.42 112C375.42 91.81 367.3400000000001 82.48 356.64 82.48S337.64 91.81 337.64 112V137.2C337.64 156.3 345.76 165.47 356.57 165.47S375.4 156.3 375.4 137.2zM265.77 366C265.77 415.5900000000001 240.03 440.31 205.11 440.31S144.36 415.62 144.36 366V337.55C144.36 286.0900000000001 170.08 261.0300000000001 205.19 261.0300000000001C240.12 261.0300000000001 265.77 286.0900000000001 265.77 337.55zM233.31 332.88C233.31 302.63 221.2 288.64 205.19 288.64C189 288.64 176.73 302.64 176.73 332.88V370.64C176.73 399.28 188.92 412.98 205.11 412.98S233.31 399.28 233.31 370.64zM328 337.06H343.67C361.48 337.06 372.98 330.25 372.98 311.69C372.98 296.77 361.73 287.31 345.2000000000001 287.31C330.2000000000001 287.31 319.73 296.31 319.73 309.55H287.5300000000001C287.5300000000001 276.4100000000001 315.29 261.06 344.43 261.06C378.6 261.06 405.1 279.4700000000001 405.1 311.25C405.1 330 395.3900000000001 345.25 375.0300000000001 351.98C392.67 360.33 402.0300000000001 376.69 402.0300000000001 391.69C402.0300000000001 423.38 378.5900000000001 440.3400000000001 344.6900000000001 440.3400000000001C313.0800000000001 440.3400000000001 289.6400000000001 421.8400000000001 289.6400000000001 394.06H321.35C321.35 406.52 331.99 414.53 345.5300000000001 414.53C361.3 414.53 370.42 404.64 370.42 391.17C370.42 376.69 361.2200000000001 365.17 343.6600000000001 365.17H328z" />
    <glyph glyph-name="AD_051_two-from-ten"
      unicode="&#xEA3D;"
      horiz-adv-x="512" d="M416 208H128V240H416zM286.7 182.13H267.7L239.61 165.63L248.2 150.63L265.83 160.87H266.52V65.64H286.7zM397.09 134.13C397.09 167.24 379.91 183.74 356.59 183.74S316 167.23 316 134.12V115.12C316 80.77 333.19 64.04 356.61 64.04S397.06 80.77 397.06 115.12zM375.42 112C375.42 91.81 367.3400000000001 82.48 356.64 82.48S337.64 91.81 337.64 112V137.2C337.64 156.3 345.76 165.47 356.57 165.47S375.4 156.3 375.4 137.2zM264.58 366C264.58 415.5900000000001 238.84 440.31 203.92 440.31S143.17 415.62 143.17 366V337.55C143.17 286.0900000000001 168.89 261.0300000000001 204 261.0300000000001C238.94 261.0300000000001 264.58 286.0900000000001 264.58 337.55zM232.12 332.88C232.12 302.63 220.02 288.64 204 288.64C187.81 288.64 175.55 302.64 175.55 332.88V370.64C175.55 399.28 187.73 412.98 203.92 412.98S232.12 399.28 232.12 370.64zM405.2 291.28H339.69C335.77 291.28 333.81 291.28 330.4100000000001 289.92L329.6400000000001 291.7200000000001A19.36 19.36 0 0 1 336.8000000000001 296.7200000000001L362.6900000000001 323.89C384.5000000000001 347.25 400.6100000000001 367.01 400.6100000000001 390.18C400.6100000000001 420.86 380.0800000000001 440.29 344.7200000000001 440.29C308.1600000000001 440.29 287.1100000000001 413.01 287.1100000000001 382.29H319C319 399.29 327 414.07 344.14 414.07C359.64 414.07 368.85 403.42 368.85 387.57C368.85 376.57 362.29 364.48 344.47 346.26L286.19 287.39V263.39H405.19z" />
    <glyph glyph-name="AD_052_one-from-ten"
      unicode="&#xEA3E;"
      horiz-adv-x="512" d="M234.94 261.03C269.88 261.03 295.52 286.0900000000001 295.52 337.55V366C295.52 415.5900000000001 269.781 440.31 234.86 440.31C199.94 440.31 174.11 415.62 174.11 366V337.55C174.11 286.0900000000001 199.83 261.03 234.94 261.03zM206.48 370.64C206.48 399.28 218.67 412.98 234.86 412.98S263.061 399.28 263.061 370.64V332.88C263.061 302.63 250.951 288.64 234.94 288.64C218.75 288.64 206.48 302.64 206.48 332.88V370.64zM352.28 406.0900000000001L353.28 406.0900000000001L353.28 263.45L383.53 263.45L383.58 437.88L355.12 437.88L313 413.25L325.86 390.75zM239.61 165.63L248.2 150.63L265.83 160.87L266.52 160.87L266.52 65.64L286.7 65.64L286.7 182.13L267.7 182.13zM128 240H416V208H128V240zM356.59 183.74C333.271 183.74 316 167.23 316 134.12V115.12C316 80.769 333.19 64.04 356.61 64.04S397.0590000000001 80.769 397.0590000000001 115.12L397.089 134.13C397.09 167.24 379.9100000000001 183.74 356.59 183.74zM356.64 82.48C345.941 82.48 337.64 91.81 337.64 112V137.2C337.64 156.3 345.76 165.471 356.571 165.471C367.381 165.471 375.401 156.3 375.401 137.2L375.421 112C375.42 91.811 367.34 82.48 356.64 82.48z" />
    <glyph glyph-name="AD_053_PARTIAL-0_toggle-button-act"
      unicode="&#xEA3F;"
      horiz-adv-x="512" d="M352 160H160C106.98 160 64 202.98 64 256L64 256C64 309.02 106.98 352 160 352H352C405.02 352 448 309.02 448 256L448 256C448 202.98 405.02 160 352 160z" />
    <glyph glyph-name="AD_053_PARTIAL-1_COLOR-0074FF_toggle-button-act"
      unicode="&#xEA40;"
      horiz-adv-x="512" d="M280 256A72 72 0 0 1 424 256A72 72 0 0 1 280 256" />
    <glyph glyph-name="AD_054_PARTIAL-0_toggle-button-dis"
      unicode="&#xEA41;"
      horiz-adv-x="512" d="M160 352H352C405.02 352 448 309.02 448 256L448 256C448 202.98 405.02 160 352 160H160C106.98 160 64 202.98 64 256L64 256C64 309.02 106.98 352 160 352z" />
    <glyph glyph-name="AD_054_PARTIAL-1_COLOR-0074FF_toggle-button-dis"
      unicode="&#xEA42;"
      horiz-adv-x="512" d="M88 256A72 72 0 0 1 232 256A72 72 0 0 1 88 256" />
    <glyph glyph-name="AD_055_PARTIAL-0_radio-button-act"
      unicode="&#xEA43;"
      horiz-adv-x="512" d="M256 400C176.471 400 112 335.529 112 256C112 176.471 176.471 112 256 112C335.529 112 400 176.471 400 256C400 335.529 335.529 400 256 400z" />
    <glyph glyph-name="AD_055_PARTIAL-1_COLOR-0074FF_radio-button-act"
      unicode="&#xEA44;"
      horiz-adv-x="512" d="M256 352C309.02 352 352 309.02 352 256S309.02 160 256 160S160 202.98 160 256C160.061 308.9940000000001 203.006 351.939 256 352" />
    <glyph glyph-name="AD_056_radio-button-dis"
      unicode="&#xEA45;"
      horiz-adv-x="512" d="M256 400A144 144 0 1 1 400 256A144 144 0 0 1 256 400zM256 160A96 96 0 1 0 352 256A96.11000000000001 96.11000000000001 0 0 0 256 160z" />
    <glyph glyph-name="AD_057_PARTIAL-0_checkbox-act"
      unicode="&#xEA46;"
      horiz-adv-x="512" d="M112 400V112H400V400H112z" />
    <glyph glyph-name="AD_057_PARTIAL-1_COLOR-FFFFFF_checkbox-act"
      unicode="&#xEA47;"
      horiz-adv-x="512" d="M144 252.84L218.93 179.08C223.121 174.973 229.828 174.973 234.02 179.08L368 311L341.7200000000001 336.87L225.9400000000001 222.87L169.75 278.18L144 252.84z" />
    <glyph glyph-name="AD_058_checkbox-dis"
      unicode="&#xEA48;"
      horiz-adv-x="512" d="M112 400V112H400V400zM352 160H160V352H352z" />
    <glyph glyph-name="AD_059_zero-from-ten"
      unicode="&#xEA49;"
      horiz-adv-x="512" d="M406.39 337.5800000000001C406.39 286.12 380.75 261.07 345.81 261.07C310.7 261.07 284.98 286.12 284.98 337.58V366C284.98 415.5900000000001 310.8 440.3 345.73 440.3S406.39 415.5900000000001 406.39 366zM373.94 370.64C373.94 399.27 361.94 412.98 345.73 412.98S317.36 399.27 317.36 370.64V332.9C317.36 302.65 329.62 288.67 345.81 288.67C361.81 288.67 373.94 302.67 373.94 332.9zM262.39 337.5800000000001C262.39 286.12 236.75 261.07 201.81 261.07C166.7 261.07 140.98 286.12 140.98 337.58V366C140.98 415.5900000000001 166.8 440.3 201.73 440.3S262.39 415.5900000000001 262.39 366zM229.94 370.64C229.94 399.27 217.94 412.98 201.73 412.98S173.36 399.27 173.36 370.64V332.9C173.36 302.65 185.62 288.67 201.81 288.67C217.81 288.67 229.94 302.67 229.94 332.9zM416 240H128V208H416zM286.7 65.63H266.52V160.86H265.83L248.2 150.62L239.61 165.62L267.7 182.12H286.7zM397.09 115.12C397.09 80.77 379.97 64.04 356.64 64.04S316 80.77 316 115.12V134.12C316 167.23 333.24 183.73 356.56 183.73S397.06 167.23 397.06 134.12zM375.42 137.2C375.42 156.3 367.42 165.47 356.5900000000001 165.47S337.6600000000001 156.3 337.6600000000001 137.2V112C337.6600000000001 91.81 345.8400000000001 82.48 356.6600000000001 82.48S375.4400000000001 91.81 375.4400000000001 112z" />
    <glyph glyph-name="AD_060_blow"
      unicode="&#xEA4A;"
      horiz-adv-x="512" d="M448 272A64.06 64.06 0 0 0 384 208H343.1A63.27 63.27 0 0 0 352 176A64 64 0 0 0 224 176H256A32 32 0 1 1 288 208H64V240H384A32 32 0 1 1 352 272H320A64 64 0 0 0 448 272zM304 336A64 64 0 0 1 176 336H208A32 32 0 1 0 240 304H96V272H240A64.06 64.06 0 0 1 304 336z" />
    <glyph glyph-name="AD_061_substances"
      unicode="&#xEA4B;"
      horiz-adv-x="512" d="M364.8 301.16L349.9100000000001 259.44A75.86 75.86 0 1 0 241.9100000000001 214.55L173.47 246.76A54 54 0 1 0 184.41 279.1A54.56000000000001 54.56000000000001 0 0 0 182.75 266.36L251.1600000000001 234.16A75.81 75.81 0 0 0 329.5200000000001 266.75L344.3400000000001 308.25A43.34 43.34 0 1 0 368.67 300.77C367.33 300.77 366.09 301 364.8 301.16z" />
    <glyph glyph-name="AD_062_hot"
      unicode="&#xEA4C;"
      horiz-adv-x="512" d="M326.11 283C317.62 300 308 319.27 308 344C308 391.73 336.64 420.92 337.86 422.14L340.69 425L368.93 396.76L366.19 393.94C365.45 393.17 348 374.8 348 344.0300000000001C348 328.76 354.44 315.88 361.89 300.98C370.38 284 380 264.73 380 240C380 192.27 351.36 163.08 350.14 161.86L347.31 159L319 187.18L321.78 190.03C322.53 190.79 340.04 209.09 340.04 240.0300000000001C340 255.27 333.56 268.15 326.11 283zM252 240C252 209.09 234.49 190.79 233.74 190L231 187.18L259.31 159L262.14 161.83C263.36 163.08 292 192.27 292 240C292 264.73 282.38 284 273.89 300.95C266.44 315.85 260 328.73 260 344C260 374.77 277.45 393.14 278.19 393.91L280.93 396.73L252.69 425L249.86 422.17C248.64 420.92 220 391.73 220 344C220 319.27 229.62 300 238.11 283.05C245.56 268.15 252 255.27 252 240zM96 128V96H416V128zM164 240C164 209.09 146.49 190.79 145.74 190L143 187.18L171.31 159L174.14 161.83C175.36 163.08 204 192.27 204 240C204 264.73 194.38 284 185.89 300.95C178.44 315.85 172 328.73 172 344C172 374.77 189.45 393.14 190.19 393.91L192.93 396.73L164.69 425L161.86 422.17C160.64 420.92 132 391.73 132 344C132 319.27 141.62 300 150.11 283.05C157.56 268.15 164 255.27 164 240z" />
    <glyph glyph-name="AD_063_cold"
      unicode="&#xEA4D;"
      horiz-adv-x="512" d="M354.07 294.14L288 256L354.07 217.86L397.78 229.57L406.56 196.79L373.78 188L382.56 155.22L349.78 146.43L338.07 190.14L272 228.29V152L304 120L280 96L256 120L232 96L208 120L240 152V228.29L173.93 190.1400000000001L162.22 146.4300000000001L129.44 155.2200000000001L138.22 188L105.44 196.79L114.22 229.5700000000001L157.93 217.8600000000001L224 256L157.93 294.14L114.22 282.43L105.44 315.22L138.22 324L129.44 356.79L162.22 365.57L173.93 321.86L240 283.7100000000001V360L208 392L232 416L256 392L280 416L304 392L272 360V283.71L338.07 321.86L349.78 365.57L382.56 356.79L373.78 324L406.56 315.2200000000001L397.78 282.43z" />
    <glyph glyph-name="AD_064_import-substance"
      unicode="&#xEA4E;"
      horiz-adv-x="512" d="M346 170H186V138H346zM426 296.17V154A64 64 0 0 0 362 90H170A64 64 0 0 0 106 154V296.17L170 261.17V122H362V261.14zM325 246L267 186.08L209 246zM337.9100000000001 402.26L327 371.5900000000001A56 56 0 0 0 349.7200000000001 296.11A55.209999999999994 55.209999999999994 0 0 0 274.7200000000001 273.24A55.92000000000001 55.92000000000001 0 0 0 247.8400000000001 338.61L198.22 362.43A39.4 39.4 0 0 0 142.82 354.43A40 40 0 0 0 134.91 410.2000000000001A39.4 39.4 0 0 0 190.31 418.2000000000001A39.61 39.61 0 0 0 205 376.93L254.9 353A55.24000000000001 55.24000000000001 0 0 0 312.11 376.9L323 407.44A32 32 0 0 0 313.79 451.55A31.520000000000003 31.520000000000003 0 0 0 357.6 460.81A32 32 0 0 0 366.81 416.71A31.589999999999996 31.589999999999996 0 0 0 340.7200000000001 402.26z" />
    <glyph glyph-name="AD_065_application-feedback"
      unicode="&#xEA4F;"
      horiz-adv-x="512" d="M376 240A104 104 0 1 1 480 136A104 104 0 0 1 376 240zM430.4 138.33A4 4 0 0 1 428.54 133.61A11.8 11.8 0 0 0 429 130.34A11.94 11.94 0 0 0 422.3999999999999 119.66A4 4 0 0 1 420.5399999999999 114.94A11.74 11.74 0 0 0 420.9999999999999 111.67A12 12 0 0 0 414.4 101A4 4 0 0 1 412.54 96.29A11.81 11.81 0 0 0 413 93A12.120000000000001 12.120000000000001 0 0 0 401 81H345C337 81 329 89 329 97V145C329 153 337 161 337 161L392.64 210.64C394.34 212.08 396.7 211.48 398.09 209.73C404.73 201.39 402.78 192.31 396.7 185L385 170.64C381.73 167.24 383.51 161 387.5 161H425A12 12 0 0 0 430.4 138.33zM160 400A64 64 0 0 1 96 336V96L176 176H254.38A128.14 128.14 0 0 0 416 257.62V400zM178 219L192.6 257.48L215.48 234.61zM226.06 245.19L203.19 268.06L293.13 358L316 335.13z" />
    <glyph glyph-name="AD_066_warning-triangle"
      unicode="&#xEA50;"
      horiz-adv-x="512" d="M432.9100000000001 155.77A18.21 18.21 0 0 0 433.55 137.19A17.25 17.25 0 0 0 418.23 128H93.77A17.25 17.25 0 0 0 78.45 137.19A18.21 18.21 0 0 0 79.09 155.77L243.39 411.63A15 15 0 0 0 268.61 411.63zM377.52 168L256 357.23L134.48 168z" />
    <glyph glyph-name="AS_001_device-configuration"
      unicode="&#xEA51;"
      horiz-adv-x="512" d="M336 272H304V416L312 448H328L336 416zM352 66V256H288V66A2 2 0 0 1 290 64H350A2 2 0 0 1 352 66zM272 376A71.79 71.79 0 0 1 224 443.5900000000001V368H176V443.5900000000001A71.59 71.59 0 0 1 176 308.41V64H224V308.41A71.79 71.79 0 0 1 272 376z" />
    <glyph glyph-name="AS_002_read-device-configuration"
      unicode="&#xEA52;"
      horiz-adv-x="512" d="M288 228.79V288H352V261.67A127.52 127.52 0 0 1 288 228.79zM336 416L328 448H312L304 416V304H336zM272 376A71.79 71.79 0 0 1 224 443.5900000000001V368H176V443.5900000000001A71.59 71.59 0 0 1 176 308.41V64H224V308.41A71.79 71.79 0 0 1 272 376zM480 136A104 104 0 1 0 376 240A104 104 0 0 0 480 136zM464 128S434.74 175.85 376.12 176A40.4 40.4 0 1 0 337.12 145.1A23.93 23.93 0 1 1 366.9 174.88A40.33 40.33 0 0 0 375.9 176.01H375.82A104.66 104.66 0 0 1 365.03 175.45A24.420000000000005 24.420000000000005 0 0 1 360 176A23.9 23.9 0 0 1 346.25 171.63C307.44 159.79 288 128 288 128S317.33 80 375.88 80C434.67 80 464 128 464 128z" />
    <glyph glyph-name="AS_003_update-device-configuration"
      unicode="&#xEA53;"
      horiz-adv-x="512" d="M224 308.41V64H176V308.41A71.59 71.59 0 0 0 176 443.5900000000001V368H224V443.5900000000001A71.59 71.59 0 0 0 224 308.41zM336 416L328 448H312L304 416V304H336zM352 261.67V288H288V228.79A127.52 127.52 0 0 0 352 261.67zM362.48 32.86C316.12 38.7 278.7000000000001 76.13 272.86 122.48A104.07 104.07 0 0 0 389.52 239.15C435.88 233.3 473.3 195.87 479.15 149.52A104.07 104.07 0 0 0 362.48 32.86zM448 208L426.61 186.61A70.82 70.82 0 0 1 376 208A72 72 0 0 1 376 64C413 64 443.16 92.05 447.2 128H415.2A40.28 40.28 0 1 0 404.2 164.17L384 144H448z" />
    <glyph glyph-name="AS_004_calibration"
      unicode="&#xEA54;"
      horiz-adv-x="512" d="M198.84 138.8C196.39 148.44 189.36 153.38 180.41 153.38C167.59 153.38 158.97 142.94 158.97 121.45S167.59 89.81 180.41 89.81C189.41 89.81 196.31 94.67 198.84 104.02L216.09 102.16C211.69 84.05 197.81 73.83 180.41 73.83C157.47 73.83 141.41 91.53 141.41 121.45S157.52 169.36 180.41 169.36C197.81 169.36 211.84 159.06 216.19 140.72zM224.06 75.09L255.44 168.09H274.14L305.52 75.09H286.52L280.52 95.09H249.12L243.12 75.09zM253.47 109.61H276.14L265.42 145.25H264.25zM375.4700000000001 75.09H318.75V168.09H336.4100000000001V89.9399999999999H375.4700000000001zM304 416H208V448H304zM288 384V400H224V384A63.42000000000001 63.42000000000001 0 0 1 160.74 322.11C160.74 320.68 160.64 319.9100000000001 160.55 320H320V288H160V192H352V320A64 64 0 0 1 288 384z" />
    <glyph glyph-name="AS_005_PARTIAL-0_COLOR-7FEE1A_measuring-accuracy"
      unicode="&#xEA55;"
      horiz-adv-x="512" d="M256 152A104 104 0 0 1 464 152A104 104 0 0 1 256 152" />
    <glyph glyph-name="AS_005_PARTIAL-1_measuring-accuracy"
      unicode="&#xEA56;"
      horiz-adv-x="512" d="M234.33 176H160V304H256V226.43C245.192 211.397 237.797 194.187 234.33 176zM238.46 112H176C158.327 112 144 126.326 144 144V320H272V244.79C281.471 253.7820000000001 292.263 261.2720000000001 304 267V448H176C140.654 448 112 419.346 112 384V103.721C112 91.651 118.65 80.31 129.56 75.16C143.18 68.74 161.93 64 184 64H232C242.693 63.986 253.348 65.272 263.73 67.83C252.428 80.708 243.834 95.73 238.46 112zM160 144C160 135.164 167.164 128 176 128S192 135.164 192 144S184.836 160 176 160S160 152.836 160 144zM234.15 129.18C232.753 136.707 232.033 144.344 232 152C232 153.939 232.2 155.83 232.29 157.74C224.637 153.64 221.756 144.113 225.855 136.46C227.65 133.111 230.596 130.524 234.15 129.18zM353.51 102.48L339.11 88.09L324.7200000000001 102.48L282.4 144.8L301.889 164.29L339.11 127.061L412.509 200.46L432 181L353.51 102.48z" />
    <glyph glyph-name="AS_007_synchronize"
      unicode="&#xEA57;"
      horiz-adv-x="512" d="M272 288L329.61 339.8400000000001A111.54000000000002 111.54000000000002 0 0 1 144 256H80A175.8 175.8 0 0 0 377.56 383L432 432V288zM80 72L137.26 126.4A175.75999999999996 175.75999999999996 0 0 1 432 256H368A112.12 112.12 0 0 0 256 144A111 111 0 0 0 184 170.76L240 224H80z" />
    <glyph glyph-name="AS_008_edit-configuration"
      unicode="&#xEA58;"
      horiz-adv-x="512" d="M336 304H304V416L312 448H328L336 416zM352 261.67V288H288V228.79A127.52 127.52 0 0 0 352 261.67zM272 376A71.79 71.79 0 0 1 224 443.5900000000001V368H176V443.5900000000001A71.59 71.59 0 0 1 176 308.41V64H224V308.41A71.79 71.79 0 0 1 272 376zM480 136A104 104 0 1 0 376 240A104 104 0 0 0 480 136zM368 80L320 128V80zM446.14 177.86L417.86 206.14L340.6500000000001 128.93L368.9300000000001 100.65z" />
    <glyph glyph-name="AS_009_deadline-list"
      unicode="&#xEA59;"
      horiz-adv-x="512" d="M248.41 128H144A64 64 0 0 0 80 192V416H112V368H176V416H336V368H400V416H432V251A126.35999999999999 126.35999999999999 0 0 1 400 261.7100000000001V336H112V192A32 32 0 0 1 144 160H250.33A128.23 128.23 0 0 1 248 136C248 133.3 248.24 130.66 248.41 128zM384 448H352V384H384zM160 448H128V384H160zM186.22 215.67V202.91H249.66V217.75H214.75A11.21 11.21 0 0 1 209.8 217.03L209.38 218.03A10 10 0 0 1 213.19 220.71L227 235.14C238.62 247.59 247.22 258.14 247.22 270.47C247.22 286.83 236.27 297.17 217.42 297.17C197.94 297.17 186.72 282.64 186.72 266.25H203.72C203.72 275.33 207.97 283.19 217.09 283.19C225.38 283.19 230.28 277.52 230.28 269.06C230.28 263.2199999999999 226.78 256.77 217.28 247.06zM293.06 297.17C276.2200000000001 297.17 263.7200000000001 287.33 263.7200000000001 272.52H280.61C280.61 279.16 286.2800000000001 283.42 293.5 283.42C301.9100000000001 283.42 306.77 278.16 306.77 270.97C306.77 263.25 301.88 257.12 292.5 257.12H284.1600000000001V242.12H292.5A20.09 20.09 0 0 0 301.71 240.12A131 131 0 0 0 313.8 247.8400000000001A26.749999999999996 26.749999999999996 0 0 1 309.22 250.1C318.62 254.54 323.62 263.26 323.62 271.26C323.62 288.14 311.12 297.17 293.06 297.17zM279.75 227.47H262.59C262.59 219.25 265.88 213.17 270.88 208.93A128.69 128.69 0 0 0 281.3 221.93A11.220000000000002 11.220000000000002 0 0 0 279.75 227.4700000000001zM362.48 32.85C316.13 38.7 278.7000000000001 76.13 272.85 122.48A104.07999999999998 104.07999999999998 0 0 0 389.52 239.15C435.87 233.3 473.3 195.87 479.15 149.52A104.07999999999998 104.07999999999998 0 0 0 362.48 32.85zM320 176H384V192H320zM432 96H320V80H432zM432 128H320V112H432zM432 160H320V144H432z" />
    <glyph glyph-name="AS_010_emergency-stop"
      unicode="&#xEA5A;"
      horiz-adv-x="512" d="M322.27 416H189.73L96 322.27V189.73L189.73 96H322.27L416 189.73V322.27zM352 187.83L324.18 160L256 228.17L187.83 160L160 187.83L228.18 256L160 324.17L187.83 352L256 283.8300000000001L324.18 352L352 324.17L283.83 256z" />
    <glyph glyph-name="AS_011_visual-inspection"
      unicode="&#xEA5B;"
      horiz-adv-x="512" d="M224 144A16 16 0 0 0 240 160A15.72 15.72 0 0 0 249.77 156.36A128.87 128.87 0 0 1 248 136C248 134.19 248.2 132.43 248.27 130.63A15.56 15.56 0 0 0 240 128A16 16 0 0 0 224 144zM250.05 113.77A31.53 31.53 0 0 0 240 112H176A32 32 0 0 0 144 144V320H272V210.43A128.64 128.64 0 0 0 304 241.82V448H176A64 64 0 0 1 112 384V103.72C112 91.65 118.65 80.31 129.56 75.16C143.18 68.73 161.93 64 184 64H232A130 130 0 0 1 267.18 68.86A126.88 126.88 0 0 0 250.05 113.77zM256 180.2V304H160V176H254.46C254.93 177.42 255.48 178.8 256 180.2zM160 144A16 16 0 1 1 176 160A16 16 0 0 1 160 144zM480 136A104 104 0 1 0 376 240A104 104 0 0 0 480 136zM464 128S434.74 175.85 376.12 176A40.4 40.4 0 1 0 337.12 145.1A23.93 23.93 0 1 1 366.9 174.88A40.33 40.33 0 0 0 375.9 176.01H375.82A104.66 104.66 0 0 1 365.03 175.45A24.420000000000005 24.420000000000005 0 0 1 360 176A23.9 23.9 0 0 1 346.25 171.63C307.44 159.79 288 128 288 128S317.33 80 375.88 80C434.67 80 464 128 464 128z" />
    <glyph glyph-name="AS_012_testing"
      unicode="&#xEA5C;"
      horiz-adv-x="512" d="M272 400H144V448H240A32 32 0 0 0 272 416zM270.18 64H128A32 32 0 0 0 96 96V416H128V384H288V416H320V251A127.83000000000001 127.83000000000001 0 0 1 270.18 64zM203.54 217.59L298.4 312.45L274.85 336L186.1400000000001 247.29L141.1400000000001 292.29L117.6 268.73L168.74 217.59L186.14 200.19zM480 136A104 104 0 1 0 376 240A104 104 0 0 0 480 136zM448 136L384 200V160H320V112H384V72z" />
    <glyph glyph-name="AS_013_test-results"
      unicode="&#xEA5D;"
      horiz-adv-x="512" d="M336 416V384H176V416H144V96A32 32 0 0 1 176 64H368V416zM251.54 233.59L234.14 216.19L216.74 233.59L165.6 284.73L189.15 308.28L234.15 263.28L322.85 352L346.4000000000001 328.45zM251.54 137.59L234.14 120.19L216.74 137.59L165.6 188.73L189.15 212.28L234.15 167.28L322.85 256L346.4000000000001 232.45zM192 400V448H288A32 32 0 0 0 320 416V400z" />
    <glyph glyph-name="AS_014_PARTIAL-0_error-before-testing"
      unicode="&#xEA5E;"
      horiz-adv-x="512" d="M272 400H144V448H240A32 32 0 0 0 272 416zM270.18 64H128A32 32 0 0 0 96 96V416H128V384H288V416H320V251A127.86 127.86 0 0 1 260.82 80.15A129.15 129.15 0 0 1 270.18 64zM203.54 217.59L298.4 312.45L274.85 336L186.1400000000001 247.29L141.1400000000001 292.29L117.6 268.73L168.74 217.59L186.14 200.19z" />
    <glyph glyph-name="AS_014_PARTIAL-1_COLOR-E6141E_error-before-testing"
      unicode="&#xEA5F;"
      horiz-adv-x="512" d="M272 136A104 104 0 0 1 480 136A104 104 0 0 1 272 136" />
    <glyph glyph-name="AS_014_PARTIAL-2_COLOR-FFFFFF_error-before-testing"
      unicode="&#xEA60;"
      horiz-adv-x="512" d="M432.57 175.6L415.6 192.57L376 152.97L336.4 192.57L319.43 175.6L359.03 136L319.43 96.4L336.4 79.43L376 119.03L415.6 79.43L432.57 96.4L392.9700000000001 136L432.57 175.6z" />
    <glyph glyph-name="AS_015_note-before-testing"
      unicode="&#xEA61;"
      horiz-adv-x="512" d="M272 400H144V448H240A32 32 0 0 0 272 416zM270.18 64H128A32 32 0 0 0 96 96V416H128V384H288V416H320V251A127.85 127.85 0 0 1 270.18 64zM203.54 217.59L298.4 312.45L274.85 336L186.1400000000001 247.29L141.1400000000001 292.29L117.6 268.73L168.74 217.59L186.14 200.19zM362.48 32.85C316.13 38.7 278.7000000000001 76.13 272.85 122.48A104.07999999999998 104.07999999999998 0 0 0 389.52 239.15C435.87 233.3 473.3 195.87 479.15 149.52A104.07999999999998 104.07999999999998 0 0 0 362.48 32.85zM320 176H384V192H320zM432 96H320V80H432zM432 128H320V112H432zM432 160H320V144H432z" />
    <glyph glyph-name="AS_016_test"
      unicode="&#xEA62;"
      horiz-adv-x="512" d="M336 416V384H176V416H144V96A32 32 0 0 1 176 64H368V416zM251.54 217.59L234.14 200.19L216.74 217.59L165.6 268.73L189.15 292.28L234.15 247.28L322.85 336L346.4000000000001 312.45zM192 400V448H288A32 32 0 0 0 320 416V400z" />
    <glyph glyph-name="AS_017_relocate"
      unicode="&#xEA63;"
      horiz-adv-x="512" d="M248 136A127.94 127.94 0 0 0 329.38 255.11L338.89 273.79C377.67 349.9000000000001 326.23 442.86 239.66 447.79C237.13 447.9400000000001 234.57 448.01 232 448.01S226.87 447.9400000000001 224.34 447.79C137.77 442.87 86.34 349.9100000000001 125.11 273.79L232 64L252.26 103.76A127.46000000000001 127.46000000000001 0 0 0 248 136zM160 328A72 72 0 1 0 232 256A72 72 0 0 0 160 328zM479.15 149.52C473.3 195.87 435.88 233.3 389.52 239.15A104.07 104.07 0 0 1 272.86 122.48C278.7 76.13 316.12 38.7 362.48 32.86A104.07 104.07 0 0 1 479.15 149.52zM448 144H384L404.17 164.17A39.86 39.86 0 1 1 415.17 128H447.17C443.17 92.05 412.99 64 375.9700000000001 64A72 72 0 0 0 375.9700000000001 208A70.82 70.82 0 0 0 426.5800000000001 186.61L448 208z" />
    <glyph glyph-name="AS_018_issue-articles"
      unicode="&#xEA64;"
      horiz-adv-x="512" d="M224 144A16 16 0 0 0 240 160A15.68 15.68 0 0 0 249.77 156.35A128.74 128.74 0 0 1 248 136C248 134.19 248.2 132.43 248.27 130.63A15.56 15.56 0 0 0 240 128A16 16 0 0 0 224 144zM256 180.2V304H160V176H254.46C254.93 177.42 255.48 178.8 256 180.2zM250.05 113.77A31.53 31.53 0 0 0 240 112H176A32 32 0 0 0 144 144V320H272V210.43A128.64 128.64 0 0 0 304 241.82V448H176A64 64 0 0 1 112 384V103.72C112 91.65 118.65 80.31 129.56 75.16C143.18 68.74 161.93 64 184 64H232A130.39 130.39 0 0 1 267.18 68.85A127 127 0 0 0 250.05 113.77zM160 144A16 16 0 1 1 176 160A16 16 0 0 1 160 144zM376 240A104 104 0 1 1 480 136A104 104 0 0 1 376 240zM384 72V112H320V160H384V200L448 136z" />
    <glyph glyph-name="AS_019_return-articles"
      unicode="&#xEA65;"
      horiz-adv-x="512" d="M267.18 68.85A130.39 130.39 0 0 0 232 64H184C161.93 64 143.18 68.74 129.56 75.16C118.65 80.31 112 91.65 112 103.72V384A64 64 0 0 0 176 448H304V241.82A128.64 128.64 0 0 1 272 210.43V320H144V144A32 32 0 0 1 176 112H240A31.53 31.53 0 0 1 250.05 113.77A127 127 0 0 1 267.18 68.85zM240 128A15.56 15.56 0 0 1 248.27 130.63C248.2 132.43 248 134.19 248 136A128.74 128.74 0 0 0 249.77 156.35A15.68 15.68 0 0 1 240 160A16 16 0 0 1 240 128zM256 180.2V304H160V176H254.46C254.93 177.42 255.48 178.8 256 180.2zM160 144A16 16 0 1 1 176 160A16 16 0 0 1 160 144zM272 136A104 104 0 1 0 376 32A104 104 0 0 0 272 136zM304 136L368 72V112H432V160H368V200z" />
    <glyph glyph-name="AS_020_barcode-scanner"
      unicode="&#xEA66;"
      horiz-adv-x="512" d="M64 288V320C64 355.3400000000001 88 384 128 384H160V336H112V288zM160 176H112V224H64V192C64 152 92.65 128 128 128H160zM400 224V176H352V128H384C424 128 448 156.66 448 192V224zM352 336H400V288H448V320C448 360 419.34 384 384 384H352zM176 320H128V192H176zM336 320H304V192H336zM208 320H192V192H208zM288 320H272V192H288zM384 320H352V192H384zM256 320H224V192H256z" />
    <glyph glyph-name="AS_021_hierarchy"
      unicode="&#xEA67;"
      horiz-adv-x="512" d="M240 208A32 32 0 0 1 272 176H400A32 32 0 0 1 400 240H240zM400 160H240V128A32 32 0 0 1 272 96H400A32 32 0 0 1 400 160zM176 256H144V160C144 144 160 128 176 128H224V160H176V208H224V240H176zM320 416H96V336A63.85999999999999 63.85999999999999 0 0 1 144 274.26V272H320A64 64 0 0 1 384 336V352A64 64 0 0 1 320 416z" />
    <glyph glyph-name="AS_022_module"
      unicode="&#xEA68;"
      horiz-adv-x="512" d="M96 320H416V192H96V320z" />
    <glyph glyph-name="AS_025_PARTIAL-0_COLOR-7FEE1A_acknowledge"
      unicode="&#xEA69;"
      horiz-adv-x="512" d="M272 136A104 104 0 0 1 480 136A104 104 0 0 1 272 136" />
    <glyph glyph-name="AS_025_PARTIAL-1_acknowledge"
      unicode="&#xEA6A;"
      horiz-adv-x="512" d="M176 256C175.868 300.144 211.547 336.0370000000001 255.691 336.168C299.443 336.299 335.171 301.228 335.85 257.48C346.1380000000001 260.855 356.814 262.9050000000001 367.6210000000001 263.5800000000001C363.69 321.79 315.19 368 256 368C194.176 367.923 144.077 317.824 144 256C144 196.811 190.21 148.311 248.42 144.38C249.0950000000001 155.186 251.145 165.862 254.52 176.151C210.975 176.955 176.074 212.447 176 256zM250.28 112.29C173.54 115.33 112 178.52 112 256C112 335.41 176.59 400 256 400C333.48 400 396.67 338.4600000000001 399.7100000000001 261.7200000000001C410.802 259.616 421.564 256.041 431.7100000000001 251.09C431.7600000000001 252.731 431.9600000000001 254.34 431.9600000000001 256C432 353 353.05 432 256 432S80 353 80 256S159 80 256 80C257.6600000000001 80 259.27 80.2 260.9100000000001 80.25C255.956 90.408 252.38 101.184 250.28 112.29zM300.9100000000001 239.5C310.3300000000001 264.61 297.61 292.603 272.5 302.022C247.39 311.442 219.397 298.722 209.978 273.612C200.558 248.502 213.278 220.509 238.388 211.09C249.385 206.965 261.504 206.965 272.5 211.09C280.416 221.996 290.004 231.584 300.9100000000001 239.5zM369.51 86.48L355.11 72.09L340.7200000000001 86.48L298.4 128.8L317.889 148.29L355.11 111.061L428.509 184.46L448 165L369.51 86.48z" />
    <glyph glyph-name="AS_026_PARTIAL-0_COLOR-7FEE1A_acknowledge-all"
      unicode="&#xEA6B;"
      horiz-adv-x="512" d="M256 152A104 104 0 0 1 464 152A104 104 0 0 1 256 152" />
    <glyph glyph-name="AS_026_PARTIAL-1_acknowledge-all"
      unicode="&#xEA6C;"
      horiz-adv-x="512" d="M330.52 276.45C345.73 326.445 317.532 379.304 267.538 394.513C217.543 409.723 164.684 381.524 149.474 331.53C134.264 281.535 162.463 228.676 212.457 213.467C221.386 210.75 230.6670000000001 209.369 240.0000000000001 209.37C242.0000000000001 209.37 243.9000000000001 209.55 245.8400000000001 209.67C262.854 243.314 293.836 267.748 330.52 276.45zM177.38 304C177.386 338.584 205.426 366.616 240.01 366.61C274.594 366.605 302.626 338.564 302.62 303.98C302.6140000000001 269.4000000000001 274.58 241.37 240 241.37C205.43 241.414 177.418 269.43 177.38 304zM240 349.26C215.003 349.26 194.74 328.997 194.74 304S215.003 258.74 240 258.74C264.996 258.74 285.26 279.0030000000001 285.26 304S264.996 349.26 240 349.26L240 349.26zM232 152C232.013 165.621 234.204 179.151 238.49 192.08C176.466 192.743 126.723 243.56 127.386 305.584S178.867 417.35 240.891 416.687C302.914 416.024 352.658 365.207 351.995 303.183C351.909 295.199 350.973 287.246 349.201 279.46C352.771 279.75 356.3610000000001 280 360.0010000000001 280C367.228 279.939 374.437 279.271 381.5510000000001 278C396.1570000000001 356.176 344.6230000000001 431.391 266.4470000000001 445.997C188.27 460.603 113.055 409.069 98.449 330.8930000000001C96.792 322.025 95.972 313.021 96 304C96.009 283.503 100.419 263.247 108.93 244.6C108.933 244.6230000000001 108.933 244.6470000000001 108.93 244.67C66.586 220.815 51.598 167.15 75.453 124.807C91.026 97.164 120.273 80.045 152 80C188.93 80 220.19 102.93 233.23 135.18C232.45 140.754 232.039 146.373 232 152zM138.27 202.08L138.27 202.08C142.673 197.742 147.349 193.69 152.27 189.95H151.97C139.82 189.95 129.97 180.099 129.97 167.95C129.97 155.8 139.82 145.95 151.97 145.95C164.12 145.95 173.97 155.8 173.97 167.95C173.967 171.082 173.284 174.177 171.97 177.019L171.97 177.019C177.365 174.171 182.936 171.669 188.65 169.53L188.65 169.53C188.65 168.99 188.82 168.48 188.82 167.929C188.855 147.605 172.407 131.101 152.083 131.067C131.759 131.033 115.255 147.48 115.22 167.804C115.194 182.85 124.33 196.396 138.29 202.009L138.27 202.08zM223.27 161.08C219.71 124.68 189.27 96.08 151.97 96.08C112.223 96.124 80.014 128.334 79.97 168.08C79.97 194.81 94.77 217.91 116.45 230.33L116.45 230.33C119.728 224.806 123.373 219.507 127.36 214.471L127.36 214.471C101.634 200.917 91.766 169.075 105.319 143.349S150.715 107.755 176.44 121.309C192.699 129.873 203.315 146.297 204.45 164.641L204.45 164.641C210.644 163.006 216.942 161.789 223.3 161L223.27 161.08zM353.51 102.48L339.11 88.09L324.7200000000001 102.48L282.4 144.8L301.889 164.29L339.11 127.061L412.509 200.46L432 181L353.51 102.48z" />
    <glyph glyph-name="AS_027_output-channel"
      unicode="&#xEA6D;"
      horiz-adv-x="512" d="M128 352V160H272V96H160A64 64 0 0 0 96 160V352A64 64 0 0 0 160 416H272V352zM432 256L304 384V304H240V208H304V128z" />
    <glyph glyph-name="AS_028_input-channel"
      unicode="&#xEA6E;"
      horiz-adv-x="512" d="M416 352V160A64 64 0 0 0 352 96H184L248 160H384V352H248L184 416H352A64 64 0 0 0 416 352zM288 256L160 384V304H96V208H160V128z" />
    <glyph glyph-name="AS_029_relay-interface-out"
      unicode="&#xEA6F;"
      horiz-adv-x="512" d="M165.45 115.48H152V80.66H134.34V173.66H168C190.39 173.66 201.14 161.66 201.14 144.7700000000001C201.14 131.2400000000001 194.2 122.3900000000001 183.34 117.8900000000001L204.78 80.66H185.2zM152 130.34H167.57C178.75 130.34 183.73 135.7 183.73 144.41C183.73 152.36 179.56 158.8 167.98 158.8H152zM273.8400000000001 80.66H217.14V173.66H234.81V95.51H273.86zM305.68 131.66L326.43 173.66H345.37L314.5 115.08V80.66H296.89V115.08L266 173.66H285zM304 224V288H240V352H304V416L400 320zM176 192H272V256H160V384H272V448H176A48 48 0 0 1 128 400V240A48 48 0 0 1 176 192z" />
    <glyph glyph-name="AS_030_EX-interface-in"
      unicode="&#xEA70;"
      horiz-adv-x="512" d="M319.92 80.66H259.61V173.66H319.61V158.8H277.28V134.6H313.88V119.7600000000001H277.28V95.5100000000001H319.92zM371.7000000000001 141.1400000000001A2.79 2.79 0 0 0 372.2000000000001 139.5100000000001H372.7000000000001A2.65 2.65 0 0 0 373.0600000000001 141.1400000000001L390.3600000000001 173.66H410.3L384.14 127.16L410.75 80.66H390.59L373.06 113.4A3.2100000000000004 3.2100000000000004 0 0 0 372.7 115.17H372.2A3.4100000000000006 3.4100000000000006 0 0 0 371.7 113.4L354.17 80.66H334L360.61 127.16L334.5 173.66H354.5zM368 192H224L288 256H384V384H288L224 448H368A48 48 0 0 0 416 400V240A48 48 0 0 0 368 192zM304 320L208 416V352H144V288H208V224z" />
    <glyph glyph-name="AS_031_digital-interface-in"
      unicode="&#xEA71;"
      horiz-adv-x="512" d="M305.56 80.66V173.66H335.44C360.19 173.66 378.36 154.9 378.36 127.79C378.36 97.55 360.0900000000001 80.66 334.98 80.66zM323.17 158.35V96H334.17C349.8300000000001 96 360.64 105.27 360.64 127.83C360.64 147.31 349.83 158.39 334.48 158.39zM409.7800000000001 80.66H392.17V173.66H409.7800000000001zM368 192H224L288 256H384V384H288L224 448H368A48 48 0 0 0 416 400V240A48 48 0 0 0 368 192zM304 320L208 416V352H144V288H208V224z" />
    <glyph glyph-name="AS_032_interface-in-4-20"
      unicode="&#xEA72;"
      horiz-adv-x="512" d="M178.83 98.55H165.39V80.66H149.72V98.55H108.91V110.12L147.69 173.66H165.39V113.3900000000001H178.83V98.55zM149.72 113.391V151.86L147.72 147.86L127.42 113.391H149.72zM257.34 120.7H191.69V133.7H257.34V120.7zM334.09 80.7H270.66V93.42L301.72 124.8C311.2 134.5200000000001 314.72 140.971 314.72 146.8C314.72 155.26 309.821 160.93 301.55 160.93C292.43 160.93 288.16 153.071 288.16 143.991H271.16C271.16 160.381 282.38 174.911 301.84 174.911C320.7 174.911 331.64 164.571 331.64 148.211C331.64 135.8710000000001 323.06 125.331 311.441 112.881L297.62 98.4C296.576 97.222 295.271 96.304 293.81 95.72L294.219 94.72C295.794 95.329 297.486 95.575 299.169 95.439H334.089V80.7zM413.39 120.2C413.39 92.769 399.72 79.429 381.09 79.429S348.67 92.769 348.67 120.2V135.33C348.67 161.769 362.441 174.92 381.05 174.92C399.66 174.92 413.39 161.77 413.39 135.3299999999999V120.2zM396.08 137.82C396.08 153.09 389.69 160.38 381.08 160.38S365.97 153.09 365.97 137.82V117.71C365.97 101.59 372.5 94.13 381.12 94.13S396.12 101.59 396.12 117.71L396.08 137.82zM368 192H224L288 256H384V384H288L224 448H368C394.51 448 416 426.51 416 400V240C416 213.49 394.51 192 368 192zM304 320L208 416L208 352L144 352L144 288L208 288L208 224z" />
    <glyph glyph-name="AS_033_identify"
      unicode="&#xEA73;"
      horiz-adv-x="512" d="M256 80C159 80 80 158.95 80 256S159 432 256 432S432 353 432 256S353.05 80 256 80zM256 400C176.59 400 112 335.41 112 256S176.59 112 256 112S400 176.59 400 256S335.4100000000001 400 256 400zM256 144A112 112 0 1 0 368 256A112.14 112.14 0 0 0 256 144zM256 336A80 80 0 1 1 336 256A80.09 80.09 0 0 1 256 336zM256 208A48 48 0 1 1 208 256A48 48 0 0 1 256 208z" />
    <glyph glyph-name="AS_034_pressure-relief"
      unicode="&#xEA74;"
      horiz-adv-x="512" d="M240 431A143.62 143.62 0 0 0 367 304H342.94A120.18 120.18 0 0 1 240 406.81zM105.06 304A120.18 120.18 0 0 0 208 406.81V431A143.62 143.62 0 0 1 81 304zM480 136A104 104 0 1 0 376 240A104 104 0 0 0 480 136zM352 208A32 32 0 0 1 320 176V128C320 127.84 352 127.84 352 128V176H384S384.15 112 384 112S351.79 112.16 352 112L400 64C400.13 64 448 112 448 112H416C415.85 112 416 151.72 416 151.72S416 163.43 415.93 176.11A32 32 0 0 1 383.93 208zM365.73 263.48C366.2100000000001 266.31 366.73 269.15 367.0200000000001 272H312V288A87.82999999999998 87.82999999999998 0 0 1 177.43 362.53L240.11 315.53A32 32 0 1 0 196.48 271.9L149.48 334.5800000000001A87.31 87.31 0 0 1 136 288V272H81A143.7 143.7 0 0 1 248.52 146.21A127.87000000000002 127.87000000000002 0 0 0 365.73 263.48z" />
    <glyph glyph-name="AS_035_manage-device-pool"
      unicode="&#xEA75;"
      horiz-adv-x="512" d="M236.52 226.36A31.840000000000003 31.840000000000003 0 0 1 207 254.7200000000001C194.32 255.56 173.3 256 160 256S125.71 255.56 113 254.7200000000001A31.840000000000003 31.840000000000003 0 0 1 83.45 226.36A629.68 629.68 0 0 1 80 160C80 142.33 80.73 125.06 82.1 108.29A47.87 47.87 0 0 1 127.89 64.49C135.82 64.17 151.89 64 160 64S184.18 64.17 192.11 64.49A47.87 47.87 0 0 1 237.9 108.29C239.27 125.06 240 142.29 240 160A629.68 629.68 0 0 1 236.52 226.36zM216 127.36A15.369999999999997 15.369999999999997 0 0 0 200.62 112H119.38A15.369999999999997 15.369999999999997 0 0 0 104 127.37V192.63A15.369999999999997 15.369999999999997 0 0 0 119.38 208H200.62A15.369999999999997 15.369999999999997 0 0 0 216 192.63zM152 132A12 12 0 1 0 140 144A12 12 0 0 0 152 132zM192 132A12 12 0 1 0 180 144A12 12 0 0 0 192 132zM192 160H128V192H192zM256 180.2V416A32 32 0 0 0 288 448H432V251A125.93 125.93 0 0 1 408 259.8400000000001V320H280V220.47A127.74000000000001 127.74000000000001 0 0 1 256 180.2zM304 304H384V263.6C381.34 263.76 378.7 264 376 264A127.45 127.45 0 0 1 304 241.82zM376 240A104 104 0 1 1 480 136A104 104 0 0 1 376 240zM435.63 136A55.3 55.3 0 0 0 434.8 126.85L448 112.47L433.09 87.53L413.67 91.37A60.17 60.17 0 0 0 397.19 82.21L390.9100000000001 64H361.09L354.81 82.21A60.17 60.17 0 0 0 338.33 91.37L318.91 87.53L304 112.47L317.2 126.85A50.85 50.85 0 0 0 317.2 145.15L304 159.53L318.9100000000001 184.47L338.3300000000001 180.63A60.17 60.17 0 0 0 354.8100000000001 189.79L361.09 208H390.91L397.19 189.79A60.17 60.17 0 0 0 413.67 180.63L433.09 184.47L448 159.53L434.8 145.15A55.3 55.3 0 0 0 435.63 136zM408 136A32 32 0 1 0 376 168A32 32 0 0 0 408 136z" />
    <glyph glyph-name="AS_036_manage-compositions"
      unicode="&#xEA76;"
      horiz-adv-x="512" d="M250.33 112H144V352A64 64 0 0 0 208 416H352V261.67A127.59999999999998 127.59999999999998 0 0 1 250.33 112zM254.46 96H128V320H96V64H270.19A127.21 127.21 0 0 0 254.46 96zM480 136A104 104 0 1 0 376 240A104 104 0 0 0 480 136zM368 80L320 128V80zM446.14 177.86L417.86 206.14L340.6500000000001 128.93L368.9300000000001 100.65z" />
    <glyph glyph-name="AS_037_breathing-apparatus"
      unicode="&#xEA77;"
      horiz-adv-x="512" d="M407.63 386.92A425.14 425.14 0 0 1 304 413V416A32 32 0 0 1 272 448H240A32 32 0 0 1 208 416V413A425.14 425.14 0 0 1 104.37 386.88A63.82 63.82 0 0 1 64 327.41V222.95A79.84 79.84 0 0 1 108.9 151A459.09000000000003 459.09000000000003 0 0 1 161.21 129.44A96.66 96.66 0 0 0 160 144A95.51 95.51 0 0 0 175.92 196.89C160.31 198.75 146.53 200.89 135.37 202.89A47.85 47.85 0 0 0 96 250.1V325.64A31.840000000000003 31.840000000000003 0 0 0 115.47 355.09C136.12 363.78 191.16 384 256 384S375.88 363.78 396.53 355.0900000000001A31.840000000000003 31.840000000000003 0 0 0 416 325.64V250.1A47.85 47.85 0 0 0 376.63 202.88C365.47 200.88 351.69 198.75 336.08 196.88A95.51 95.51 0 0 0 352 144A96.66 96.66 0 0 0 350.79 129.47A459.09000000000003 459.09000000000003 0 0 1 403.1 151A79.84 79.84 0 0 1 448 222.95V327.41A63.82 63.82 0 0 1 407.63 386.92zM256 224A80 80 0 1 1 336 144A80 80 0 0 1 256 224zM256 128A32 32 0 1 0 288 160A32 32 0 0 0 256 128zM221 275.88A16 16 0 0 0 236.49 288H275.49A16 16 0 0 0 291 275.88L303.1 227.6A96.8 96.8 0 0 0 323.9600000000001 211.6C343.85 213.67 360.9600000000001 216.3 373.8100000000001 218.6A31.92 31.92 0 0 1 400 250.1V325.64A15.84 15.84 0 0 1 390.32 340.34C369.54 349.0900000000001 317.5 368 256 368S142.46 349.0900000000001 121.68 340.3400000000001A15.84 15.84 0 0 1 112 325.64V250.1A31.92 31.92 0 0 1 138.19 218.63C151.08 216.32 168.19 213.69 188.04 211.63A96.8 96.8 0 0 0 208.9 227.63z" />
    <glyph glyph-name="AS_038_work-clothing"
      unicode="&#xEA78;"
      horiz-adv-x="512" d="M416 144V96H273.06C263.64 96 256 103.16 256 112H196A16 16 0 0 0 180 96H128C110.33 96 96 126.33 96 144zM416 160V192A48 48 0 0 1 368 240H287.67L256 272V400L122.12 374.95A32 32 0 0 1 96 343.5V160z" />
    <glyph glyph-name="AS_039_resources"
      unicode="&#xEA79;"
      horiz-adv-x="512" d="M384 416V400H320V416H288V96H320V112H384V96H416V416zM384 368V336H320V368zM320 272V304H384V272zM384 240V208H320V240zM320 144V176H384V144zM256 384V288H224V384zM208 384H176V416H144V384H64V364A15.84 15.84 0 0 1 69.68 352H112V333.74L144 320.67V128A32 32 0 0 1 176 96V307.6L208 294.53z" />
    <glyph glyph-name="AS_040_extinguisher"
      unicode="&#xEA7A;"
      horiz-adv-x="512" d="M256 448H352V432L288 426.91V413.0900000000001L352 408V400H288V384H304A32 32 0 0 0 336 352V96A32 32 0 0 0 304 64H208V352A32 32 0 0 0 240 384H256zM208 416A48 48 0 0 1 160 368V272H176V368A32 32 0 0 0 208 400H240V416zM179.55 272H156.45L144 210.91V176H192V210.91z" />
    <glyph glyph-name="AS_041_garage"
      unicode="&#xEA7B;"
      horiz-adv-x="512" d="M320 144A48 48 0 0 1 416 144A48 48 0 0 1 320 144M96 144A48 48 0 0 1 192 144A48 48 0 0 1 96 144M384 352H336V384H304V352H256V384H96V352H64V160H82.27A63.690000000000005 63.690000000000005 0 0 0 205.73 160H306.27A63.690000000000005 63.690000000000005 0 0 0 429.73 160H448V288A64 64 0 0 1 384 352zM256 240H128V256H256zM256 272H128V288H256zM256 304H128V320H256zM416 240H336V320H384A32 32 0 0 0 416 288z" />
    <glyph glyph-name="AS_042_pump"
      unicode="&#xEA7C;"
      horiz-adv-x="512" d="M240 384A64 64 0 0 1 176 320H128V336H160V352H64V336H96V285.06A47.92 47.92 0 1 1 160 240H176V192A64 64 0 0 1 240 128H352A64 64 0 0 1 416 192V384zM112 208A32 32 0 1 0 144 240A32 32 0 0 0 112 208zM384 320H272V352H384z" />
    <glyph glyph-name="AS_043_hose"
      unicode="&#xEA7D;"
      horiz-adv-x="512" d="M256 360A72 72 0 1 0 184 288A72.08 72.08 0 0 0 256 360M256 392A104 104 0 1 1 360 288A104 104 0 0 1 256 392zM256 304A16 16 0 1 0 240 288A16 16 0 0 0 256 304M256 336A48 48 0 1 1 304 288A48 48 0 0 1 256 336zM416 288A160.54 160.54 0 1 1 311.29 138A167.11 167.11 0 0 0 224 108.41V120L112 104V80L224 64V76.41C330.55 80.65 416 168.41 416 276H415.39C415.69 280 416 283.95 416 288zM128 288A128 128 0 1 0 256 160A128.14 128.14 0 0 0 128 288z" />
    <glyph glyph-name="AS_044_communication-tool"
      unicode="&#xEA7E;"
      horiz-adv-x="512" d="M176 447V400H144V447A1 1 0 0 0 145 448H175A1 1 0 0 0 176 447zM352 336V112A48 48 0 0 0 304 64H192A48 48 0 0 0 144 112V224L112 256V352H144V384H304A48 48 0 0 0 352 336zM320 112H176V96H320zM320 144H176V128H320zM320 176H176V160H320zM320 352H176V240H320z" />
    <glyph glyph-name="AS_045_spare-parts-depo"
      unicode="&#xEA7F;"
      horiz-adv-x="512" d="M256 336H96V352A64 64 0 0 0 160 416H256zM448 192L392 96H280L224 192L280 288H392zM384 192A48 48 0 1 1 336 144A48 48 0 0 1 384 192zM208 192V320H144V192zM208 112V101.2A16.47 16.47 0 0 0 195.88 85.14L176 80L156.12 85.14A16.47 16.47 0 0 0 144 101.2V112zM208 176V160H144V176zM144 128V144H208V128z" />
    <glyph glyph-name="AS_046_new-workshop"
      unicode="&#xEA80;"
      horiz-adv-x="512" d="M414.13 200A81.23 81.23 0 0 1 412.94 213.22L432 234L410.4700000000001 270L382.4100000000001 264.4600000000001A86.44000000000001 86.44000000000001 0 0 1 358.61 277.68L349.53 304H306.4700000000001L297.3900000000001 277.69A86.44000000000001 86.44000000000001 0 0 1 273.5900000000001 264.4700000000001L245.53 270L224 234L243.06 213.23A74 74 0 0 1 243.06 186.79L224 166L245.53 130L273.59 135.54A86.44000000000001 86.44000000000001 0 0 1 297.39 122.32L306.4700000000001 96H349.5300000000001L358.61 122.31A86.44000000000001 86.44000000000001 0 0 1 382.4100000000001 135.53L410.4700000000001 130L432 166L412.94 186.77A81.23 81.23 0 0 1 414.13 200zM328 148C298.27 148 274.17 171.28 274.17 200S298.2700000000001 252 328 252S381.83 228.7200000000001 381.83 200S357.73 148 328 148zM192 308.41V64H144V308.41A71.59 71.59 0 0 0 144 443.5900000000001V368H192V443.5900000000001A71.59 71.59 0 0 0 192 308.41z" />
    <glyph glyph-name="AS_047_location"
      unicode="&#xEA81;"
      horiz-adv-x="512" d="M256 64L149.11 273.79C110.33 349.9 161.77 442.86 248.3400000000001 447.79C250.8700000000001 447.94 253.4300000000001 448.01 256.0000000000001 448.01S261.1300000000001 447.94 263.6600000000001 447.79C350.2300000000001 442.87 401.6600000000001 349.91 362.8900000000001 273.79zM256 400A72 72 0 1 1 328 328A72 72 0 0 1 256 400z" />
    <glyph glyph-name="AS_048_favorites"
      unicode="&#xEA82;"
      horiz-adv-x="512" d="M256 432L296.6 296L432 296L321.69 214L368 80L256 163.38L144 80L190.31 214L80 296L216 296L256 432z" />
    <glyph glyph-name="AS_049_function-menu"
      unicode="&#xEA83;"
      horiz-adv-x="512" d="M283.21 224H64V288H448V241.82A127.76 127.76 0 0 1 283.21 224zM448 400H64V336H448zM248 136A127.8 127.8 0 0 0 254.46 176H64V112H250.33A128.23 128.23 0 0 0 248 136zM362.48 32.86C316.12 38.7 278.7000000000001 76.13 272.86 122.48A104.07 104.07 0 0 0 389.52 239.15C435.88 233.3 473.3 195.87 479.15 149.52A104.07 104.07 0 0 0 362.48 32.86zM446.7 178.08L444.46 183.78L419.89 159.2L399.73 179.34L424.31 203.94L418.62 206.16A49.48 49.48 0 0 1 354.38 142.16L307 94.78L335.28 66.5L382.63 113.84A49.48 49.48 0 0 1 446.63 178.0800000000001z" />
    <glyph glyph-name="AS_050_incoming-articles"
      unicode="&#xEA84;"
      horiz-adv-x="512" d="M368 96H336V128H368zM320 128H288V96H320zM320 176H288V144H320zM272 128H240V96H272zM272 176H240V144H272zM368 176H336V144H368zM320 224H288V192H320zM368 224H336V192H368zM384 96H416V352A64 64 0 0 1 352 416H192V304H224V352H384zM208 192L112 288V224H64V160H112V96z" />
    <glyph glyph-name="AS_051_outgoing-articles"
      unicode="&#xEA85;"
      horiz-adv-x="512" d="M272 96H240V128H272zM224 128H192V96H224zM224 176H192V144H224zM176 128H144V96H176zM176 176H144V144H176zM272 176H240V144H272zM176 224H144V192H176zM224 224H192V192H224zM128 352H288V304H320V352A64 64 0 0 1 256 416H96V96H128zM440 192L352 280V224H304V160H352V104z" />
    <glyph glyph-name="AS_052_catalog"
      unicode="&#xEA86;"
      horiz-adv-x="512" d="M256 384V160H398.48C417 160 432 174.33 432 192V384zM400 192H288V208H400zM400 224H288V240H400zM400 256H288V272H400zM97.52 384C79 384 64 369.67 64 352V192C64 174.33 79 160 97.52 160H240V384zM112 352H192V304H112zM224 192H112V208H224zM224 224H112V240H224zM224 256H112V272H224z" />
    <glyph glyph-name="AS_055_edit-service"
      unicode="&#xEA87;"
      horiz-adv-x="512" d="M261 80H220.8L206 124.52A140.74 140.74 0 0 0 167 146.9L121.14 137.52L85.94 198.52L117.1 233.67A129.94 129.94 0 0 0 117.1 278.41L86 313.52L121.2 374.52L167 365.1A140.74 140.74 0 0 0 206 387.48L220.8 432H291.2000000000001L306 387.48A140.74 140.74 0 0 0 345 365.1L390.86 374.48L426.06 313.48L394.9 278.33A156.22 156.22 0 0 0 396.55 262.17A122 122 0 0 1 343.85 259.7200000000001A87.94 87.94 0 1 1 252.28 168.15A125.93 125.93 0 0 1 261 80zM480 136A104 104 0 1 0 376 240A104 104 0 0 0 480 136zM368 80L320 128V80zM446.14 177.86L417.86 206.14L340.6500000000001 128.93L368.9300000000001 100.65z" />
    <glyph glyph-name="AS_056_interlock-calibration"
      unicode="&#xEA88;"
      horiz-adv-x="512" d="M404 252.38V238.61H351.42V324.82H367.8V252.38zM312.5900000000001 324.82L341.67 238.61H324.07L318.48 257.17H289.4L283.8 238.61H266.1600000000001L295.25 324.82zM314.4400000000001 270.6L304.5000000000001 303.65H303.4100000000001L293.4100000000001 270.6zM288 208V99.42A32.18 32.18 0 0 0 260.09 67.65A373.52000000000004 373.52000000000004 0 0 0 155.91 67.65A32.18 32.18 0 0 0 128 99.42V412.58A32.18 32.18 0 0 0 155.91 444.35A373.52000000000004 373.52000000000004 0 0 0 260.0900000000001 444.35A32.18 32.18 0 0 0 288 412.58V352H160V208H288zM160 416H256V432H160zM160 160A16 16 0 1 1 176 176A16 16 0 0 1 160 160zM256 96H160V80H256zM256 160A16 16 0 1 1 240 144A16 16 0 0 1 256 160zM228.2 311.18C236.49 311.18 243 306.5900000000001 245.28 297.67L261.37 299.43C257.32 316.43 244.31 326 228.2 326C206.94 326 192 309.42 192 281.5900000000001S206.94 237.43 228.2 237.43C244.31 237.43 257.2 246.9000000000001 261.2799999999999 263.7000000000001L245.2799999999999 265.43C242.9199999999999 256.75 236.4899999999999 252.25 228.2 252.25C216.3299999999999 252.25 208.3299999999999 261.68 208.3299999999999 281.5900000000001S216.33 311.18 228.2 311.18z" />
    <glyph glyph-name="AS_057_service"
      unicode="&#xEA89;"
      horiz-adv-x="512" d="M430.4 344A70 70 0 0 1 429.4 355.19L445 372.76L427.4 403.24L404.47 398.55A70.17 70.17 0 0 1 385 409.74L377.6 432H342.4L335 409.74A70.17 70.17 0 0 1 315.54 398.55L292.61 403.24L275 372.76L290.58 355.19A65 65 0 0 1 290.58 332.81L275 315.24L292.6 284.76L315.5300000000001 289.4500000000001A70.42 70.42 0 0 1 335 278.26L342.4 256H377.6L385 278.26A70.42 70.42 0 0 1 404.46 289.45L427.39 284.76L445 315.24L429.42 332.81A70 70 0 0 1 430.4 344zM360 304A40 40 0 1 0 400 344A40 40 0 0 0 360 304zM295.21 272.4L267.7 267A96 96 0 0 1 251 283.67L256.45 311.21L219.5 326.52L203.83 303.2A95.76999999999998 95.76999999999998 0 0 1 192 304A95.38 95.38 0 0 1 180.16 303.12L164.51 326.49L127.51 311.18L133 283.4700000000001A95 95 0 0 1 116.34 266.9L88.79 272.4L73.48 235.4L96.81 219.78A95.09 95.09 0 0 1 96.81 196.12L73.5 180.5199999999999L88.81 143.5199999999999L116.3 149A96 96 0 0 1 133.05 132.29L127.6 104.75L164.6 89.44L180.22 112.76A95.76999999999998 95.76999999999998 0 0 1 192 112A95.38 95.38 0 0 1 203.84 112.88L219.49 89.51L256.44 104.82L250.95 132.53A95 95 0 0 1 267.61 149.1L295.25 143.63L310.56 180.63L287.23 196.25A95.09 95.09 0 0 1 287.23 219.91L310.54 235.51zM170.57 156.26A55.90999999999999 55.90999999999999 0 1 0 192 152A56.07 56.07 0 0 0 170.57 156.26z" />
    <glyph glyph-name="AS_058_install-interlock"
      unicode="&#xEA8A;"
      horiz-adv-x="512" d="M404 96A28 28 0 1 0 432 68A28 28 0 0 0 404 96zM288.62 68A28 28 0 1 1 260 95.38A28 28 0 0 1 288.62 68zM471.78 148.15L440.78 155.84A64 64 0 0 0 411.62 172L404.9 178.5A48 48 0 0 1 371.52 192H307.52A64 64 0 0 1 261.06 172L245.43 149.7A32.06 32.06 0 0 1 239.65 131L240 96H248.08A39.85 39.85 0 0 0 287.0800000000001 136A40.91 40.91 0 0 0 315.6 124.93A39.75 39.75 0 0 0 327.94 96.93C327.94 96.63 327.88 96.35 327.88 96.05H392A40 40 0 0 0 472 96.05H496L496.08 117.05A32 32 0 0 1 471.78 148.16zM256 352V304H288V272H256L320 208L384 272H352V352zM196.09 444.35A373.52000000000004 373.52000000000004 0 0 1 91.91 444.35A32.18 32.18 0 0 1 64 412.58V99.42A32.18 32.18 0 0 1 91.91 67.65A373.52000000000004 373.52000000000004 0 0 1 196.09 67.65A32.18 32.18 0 0 1 224 99.42V412.58A32.18 32.18 0 0 1 196.09 444.35zM192 80H96V96H192zM96 160A16 16 0 1 0 112 144A16 16 0 0 0 96 160zM176 144A16 16 0 1 0 192 160A16 16 0 0 0 176 144zM192 208H96V352H192zM192 416H96V432H192z" />
    <glyph glyph-name="AS_059_violation-reset"
      unicode="&#xEA8B;"
      horiz-adv-x="512" d="M256 91.8V80H160V96H254.46A127.8 127.8 0 0 0 248 136C248 139.65 248.25 143.25 248.55 146.82A15.59 15.59 0 0 0 240 144A16 16 0 0 0 240 176A15.7 15.7 0 0 0 252.57 169.45A127.78000000000002 127.78000000000002 0 0 0 288 228.79V412.58A32.18 32.18 0 0 1 260.09 444.35A373.52000000000004 373.52000000000004 0 0 1 155.91 444.35A32.18 32.18 0 0 1 128 412.58V99.42A32.18 32.18 0 0 1 155.91 67.65A373.52000000000004 373.52000000000004 0 0 1 260.0900000000001 67.65A33 33 0 0 1 266.8400000000001 69.41A126.77 126.77 0 0 0 256 91.8zM160 432H256V416H160zM160 352H256V208H160zM176 176A16 16 0 1 0 160 160A16 16 0 0 0 176 176zM376 240A104 104 0 1 1 480 136A104 104 0 0 1 376 240zM448 112A32 32 0 0 0 416 80H368C367.84 80 367.84 112 368 112H416V144S352 144.15 352 144S352.1600000000001 111.79 352 112L304 160C304 160.13 352 208 352 208V176C352 175.85 391.7200000000001 176 391.7200000000001 176L416.11 175.93A32 32 0 0 0 448 143.93z" />
    <glyph glyph-name="AS_060_remove-interlock"
      unicode="&#xEA8C;"
      horiz-adv-x="512" d="M272.08 101L272 80H248A40 40 0 0 1 168 80H103.92C103.92 80.3 103.99 80.58 103.98 80.88A39.75 39.75 0 0 1 91.64 108.88A40.52 40.52 0 0 1 63.12 120A39.85 39.85 0 0 1 24.12 80H16.34L16 115A32 32 0 0 0 21.78 133.66L37.39 156A63.84 63.84 0 0 0 83.79 176H147.64A48 48 0 0 0 181.05 162.47L187.71 156.0100000000001A64 64 0 0 1 216.84 139.85L247.79 132.16A32 32 0 0 0 272.08 101zM448 412.58V99.45A31.889999999999997 31.889999999999997 0 0 0 420.88 67.76A373.73 373.73 0 0 0 315.12 67.76A31.889999999999997 31.889999999999997 0 0 0 288 99.45V412.58A31.840000000000003 31.840000000000003 0 0 0 315.09 444.23A373.17 373.17 0 0 0 420.91 444.23A31.840000000000003 31.840000000000003 0 0 0 448 412.58zM416 96H320V80H416zM336 144A16 16 0 1 1 320 160A16 16 0 0 1 336 144zM416 160A16 16 0 1 1 400 144A16 16 0 0 1 416 160zM416 352H320V208H416zM416 432H320V416H416zM112 208H160V256H192V224L256 288L192 352V320H176A64 64 0 0 1 112 256zM92 80A28 28 0 1 1 64 52A28 28 0 0 1 92 80zM236 80A28 28 0 1 1 208 52A28 28 0 0 1 236 80z" />
    <glyph glyph-name="AS_061_swap-interlock"
      unicode="&#xEA8D;"
      horiz-adv-x="512" d="M256 91.8V80H160V96H254.46A127.8 127.8 0 0 0 248 136C248 139.65 248.25 143.25 248.55 146.82A15.59 15.59 0 0 0 240 144A16 16 0 0 0 240 176A15.7 15.7 0 0 0 252.57 169.45A127.78000000000002 127.78000000000002 0 0 0 288 228.79V412.58A31.840000000000003 31.840000000000003 0 0 1 260.9100000000001 444.23A373.17 373.17 0 0 1 155.09 444.23A31.840000000000003 31.840000000000003 0 0 1 128 412.58V99.45A31.889999999999997 31.889999999999997 0 0 1 155.12 67.76A373.73 373.73 0 0 1 260.88 67.76A30.79 30.79 0 0 1 266.88 69.28A127.23999999999998 127.23999999999998 0 0 0 256 91.8zM160 432H256V416H160zM160 352H256V208H160zM176 176A16 16 0 1 0 160 160A16 16 0 0 0 176 176zM479.15 149.52C473.3 195.87 435.88 233.3 389.52 239.15A104.07999999999998 104.07999999999998 0 0 1 272.85 122.48C278.7000000000001 76.13 316.12 38.7 362.48 32.86A104.07 104.07 0 0 1 479.15 149.52zM376 64A70.82 70.82 0 0 0 325.39 85.39L304 64V128H368L345.6 105.6A42.91 42.91 0 0 1 418.39 128H447.2C443.1600000000001 92 413 64 376 64zM448 144H384L406.4 166.4A42.91 42.91 0 0 1 333.61 144H304.8C308.8 179.95 338.98 208 376 208A70.82 70.82 0 0 0 426.61 186.61L448 208z" />
    <glyph glyph-name="AS_062_swap-car"
      unicode="&#xEA8E;"
      horiz-adv-x="512" d="M176 208A32 32 0 1 0 144 240A32 32 0 0 0 176 208zM376 264A127.42 127.42 0 0 0 447.94 241.86A47.84 47.84 0 0 1 411.75 286.23L365.2200000000001 297.7800000000001A95.76 95.76 0 0 0 321.6 322L311.5300000000001 331.75A71.87 71.87 0 0 1 261.5300000000001 352.02H165.68A95.81 95.81 0 0 1 96.08 322.02L72.66 288.53A47.8 47.8 0 0 1 64 260.5900000000001L64.52 208H96A48 48 0 0 0 192 208H270.19A127.83000000000001 127.83000000000001 0 0 0 376 264zM362.48 32.86C316.12 38.7 278.7000000000001 76.13 272.85 122.48A104.07999999999998 104.07999999999998 0 0 0 389.52 239.15C435.88 233.3 473.3 195.87 479.15 149.52A104.07 104.07 0 0 0 362.48 32.86zM447.2 128H418.39A42.91 42.91 0 0 0 345.6 105.6L368 128H304V64L325.39 85.39A70.82 70.82 0 0 1 376 64C413 64 443.1600000000001 92 447.2 128zM448 208L426.61 186.61A70.82 70.82 0 0 1 376 208C339 208 308.8400000000001 179.95 304.8 144H333.61A42.91 42.91 0 0 0 406.4000000000001 166.4L384 144H448z" />
    <glyph glyph-name="AS_063_faucet"
      unicode="&#xEA8F;"
      horiz-adv-x="512" d="M192 304H384V176A64 64 0 0 0 320 112H192A64 64 0 0 0 128 176V240A64 64 0 0 0 192 304zM64 160H112V224H64zM400 224V160H448V224zM240 320H272V368H320V400H192V368H240z" />
    <glyph glyph-name="AS_064_medical"
      unicode="&#xEA90;"
      horiz-adv-x="512" d="M432 336V160A48 48 0 0 0 384 112H128A48 48 0 0 0 80 160V288A48 48 0 0 0 128 336zM304 256H272V288H224V256H192V208H224V176H272V208H304zM160 400V352H192V368H320V352H352V400z" />
    <glyph glyph-name="AS_065_sprinkler"
      unicode="&#xEA91;"
      horiz-adv-x="512" d="M288 104A32 32 0 0 0 224 104C224 121.67 256 184 256 184S288 121.67 288 104zM191.6 183.6S124.9 162.15 112.4 149.66A32 32 0 1 1 157.66 104.4C170.15 116.9 191.6 183.6 191.6 183.6zM320.4 183.6S341.85 116.9 354.34 104.4A32 32 0 1 1 399.6 149.66C387.1 162.15 320.4 183.6 320.4 183.6zM416 448V416H352V304A32 32 0 0 0 320 272H288V256H352A32 32 0 0 0 384 224V208H128V224A32 32 0 0 0 160 256H224V272H192A32 32 0 0 0 160 304V416H96V448zM224 304V336H208V384H304V336H288V304H320V416H192V304z" />
    <glyph glyph-name="AS_066_hydrant"
      unicode="&#xEA92;"
      horiz-adv-x="512" d="M176 256H166A38 38 0 0 0 128 294V352H176zM336 256H346A38 38 0 0 1 384 294V352H336zM384 96H128V64H384zM320 384V112H192V384zM287.93 285.93A32 32 0 1 1 258.0900000000001 256.07A32 32 0 0 1 287.93 285.93zM192 400H320V448H240A48 48 0 0 1 192 400z" />
    <glyph glyph-name="AS_067_dangerous-goods-and-ecology"
      unicode="&#xEA93;"
      horiz-adv-x="512" d="M287.77 355.8300000000001C287.83 357.23 288 358.5900000000001 288 360A87.94 87.94 0 0 1 138.69 423A102.74 102.74 0 0 0 242.1 371.79C241.39 371.79 240.72 372 240 372A79.63 79.63 0 0 1 210.64 366.27A80 80 0 1 1 144 242.1A75.29 75.29 0 0 1 160 243.92V144H202.09L196.94 222A75 75 0 0 1 240 208C284.18 208 320 247.82 320 292A79.61999999999999 79.61999999999999 0 0 1 287.77 355.8300000000001zM376 240A104 104 0 1 1 480 136A104 104 0 0 1 376 240zM404.86 63.88C402.92 63.38 391.92 68.32 384.86 75.12C365.86 93.5 365.86 123.12 367.9700000000001 128C366.0200000000001 127.64 345.5 109.77 345.5 89.33C345.5 72.39 352.95 63.84 352.95 63.84S319.95 79.25 319.95 109.37C319.95 134.14 340.53 148.77 351.61 158.95S371.37 179.66 374.7700000000001 189.15S374.7700000000001 207.84 374.7700000000001 207.84S402.7700000000001 189.02 407.24 173.65S411.11 131.44 399.57 115.49C403.4 114.85 415.97 119.1 419.01 125.71A19.72 19.72 0 0 1 420.76 136.41S454.55 93.44 404.86 63.88z" />
    <glyph glyph-name="AS_068_building-and-objects"
      unicode="&#xEA94;"
      horiz-adv-x="512" d="M352 384H240V416H112V384H96V96H176V160H224V96H416V320A64 64 0 0 1 352 384zM160 192H128V224H160zM160 240H128V272H160zM160 288H128V320H160zM224 192H192V224H224zM224 240H192V272H224zM224 288H192V320H224zM288 192H256V224H288zM288 240H256V272H288zM288 288H256V320H288zM352 192H320V224H352zM352 240H320V272H352zM352 288H320V320H352z" />
    <glyph glyph-name="AS_071_gv-graph-view"
      unicode="&#xEA95;"
      horiz-adv-x="512" d="M128 384A64 64 0 0 1 64 320V192A64 64 0 0 1 128 128H384A64 64 0 0 1 448 192V384zM416 240H362.83L321.62 137L240.84 298.52L176.84 154.52L134.11 240H96V272H153.89L175.16 229.48L239.16 373.48L318.38 215L341.17 272H416z" />
    <glyph glyph-name="AS_072_gv-graph-settings"
      unicode="&#xEA96;"
      horiz-adv-x="512" d="M248.41 128H128A64 64 0 0 0 64 192V320A64 64 0 0 0 128 384H448V241.82A127.52 127.52 0 0 1 416 257.54V272H341.17L335.2800000000001 257.27A127.44 127.44 0 0 1 304.73 242.27L239.16 373.48L175.16 229.48L153.89 272H96V240H134.11L176.84 154.52L240.84 298.52L279.92 220.38A127.36999999999999 127.36999999999999 0 0 1 248 136C248 133.3 248.24 130.66 248.41 128zM480 136A104 104 0 1 0 376 240A104 104 0 0 0 480 136zM434.8 145.15L448 159.53L433.09 184.47L413.67 180.63A60.17 60.17 0 0 1 397.19 189.79L390.9100000000001 208H361.09L354.81 189.79A60.17 60.17 0 0 1 338.33 180.63L318.91 184.47L304 159.53L317.2 145.15A50.85 50.85 0 0 1 317.2 126.85L304 112.47L318.9100000000001 87.53L338.3300000000001 91.37A60.17 60.17 0 0 1 354.8100000000001 82.21L361.09 64H390.91L397.19 82.21A60.17 60.17 0 0 1 413.67 91.37L433.09 87.53L448 112.47L434.8 126.85A50.85 50.85 0 0 1 434.8 145.15zM376 168A32 32 0 1 1 408 136A32 32 0 0 1 376 168z" />
    <glyph glyph-name="AS_073_calender-day-view"
      unicode="&#xEA97;"
      horiz-adv-x="512" d="M400 400V352H336V400H176V352H112V400H80V176A64 64 0 0 1 144 112H368A64 64 0 0 1 432 176V400zM400 176A32 32 0 0 0 368 144H144A32 32 0 0 0 112 176V320H400zM160 368H128V432H160zM384 368H352V432H384zM240 240H192V288H240zM304 240H256V288H304zM368 240H320V288H368zM192 176H144V224H192zM256 176H208V224H256zM320 176H272V224H320z" />
    <glyph glyph-name="AS_074_calender-week-view"
      unicode="&#xEA98;"
      horiz-adv-x="512" d="M400 384V336H336V384H176V336H112V384H80V160A64 64 0 0 1 144 96H368A64 64 0 0 1 432 160V384zM400 160A32 32 0 0 0 368 128H144A32 32 0 0 0 112 160V304H400zM160 352H128V416H160zM384 352H352V416H384zM368 224H144V272H368zM368 160H144V208H368z" />
    <glyph glyph-name="AS_077_clothing"
      unicode="&#xEA99;"
      horiz-adv-x="512" d="M72.48 219.37L96 384L144 400L119.46 203.71zM67.88 187.18L64 160L112 144L115.41 171.34zM439.52 219.37L416 384L368 400L392.54 203.71zM396.59 171.37L400 144L448 160L444.12 187.18zM369.52 232.87L272 218.21V131.52L377.54 152.62zM240 218.21L142.48 232.84L134.48 152.62L240 131.52zM272 98.88V64L384 88L380.73 120.63zM131.27 120.63L128 88L240 64V98.88zM352 408L316.8 425.6L304 464H208L195.2 425.6L160 408L145.67 264.73L240 250.58V363.86L206.66 387.2A16 16 0 0 0 212.66 416H299.26A16 16 0 0 0 305.26 387.2L272 363.86V250.58L366.33 264.73z" />
    <glyph glyph-name="AS_078_alcotest-3820"
      unicode="&#xEA9A;"
      horiz-adv-x="512" d="M176 368V112A48 48 0 0 1 224 64H288A48 48 0 0 1 336 112V368zM256 160A32 32 0 1 0 288 192A32 32 0 0 0 256 160zM320 256H192V336H320zM319.57 421C329.37 416.9 336 409 336 400V384H176V400C176 409 182.63 416.87 192.43 421C201.65 424.83 208 433.42 208 443.41V448H304V443.41C304 433.42 310.35 424.83 319.57 421z" />
    <glyph glyph-name="AS_078_alcotest-5820"
      unicode="&#xEA9B;"
      horiz-adv-x="512" d="M176 448V384H160A16 16 0 0 1 144 368V288L176 256V104A40 40 0 0 1 216 64H296.14A39.86 39.86 0 0 1 336 103.86V416H416V448zM208 240A16 16 0 1 0 224 224A16 16 0 0 0 208 240zM256 160A24 24 0 1 0 280 184A24 24 0 0 0 256 160zM288 224A16 16 0 1 0 304 240A16 16 0 0 0 288 224zM304 288H208V352H304z" />
    <glyph glyph-name="AS_078_alcotest-6820"
      unicode="&#xEA9C;"
      horiz-adv-x="512" d="M192 448A32 32 0 0 1 160 416V128A64 64 0 0 1 224 64H288A64 64 0 0 1 352 128V416H368V384H400V416H448V448zM192 240A16 16 0 1 0 208 224A16 16 0 0 0 192 240zM256 136A40 40 0 1 0 296 176A40 40 0 0 0 256 136zM304 224A16 16 0 1 0 320 240A16 16 0 0 0 304 224zM328 288H184V384H328z" />
    </font>
</defs>
</svg>
